<?xml version="1.0" standalone="no"?>
<!DOCTYPE svg PUBLIC "-//W3C//DTD SVG 1.1//EN" "http://www.w3.org/Graphics/SVG/1.1/DTD/svg11.dtd" >
<svg>
<metadata>
Created by FontForge 20120731 at Sat Jun 29 14:44:27 2019
 By www
 Copyright (c)2013 Talbot Type. All Rights Reserved
</metadata>
<defs>
<font id="KroppenRoundW01-Regular" horiz-adv-x="189" >
  <font-face 
    font-family="KroppenRoundW01-Regular"
    font-weight="400"
    font-stretch="normal"
    units-per-em="1000"
    panose-1="1 0 0 0 0 0 0 0 0 0"
    ascent="800"
    descent="-200"
    x-height="579"
    cap-height="758"
    bbox="-49 -196 1269 924"
    underline-thickness="50"
    underline-position="-125"
    unicode-range="U+0020-2122"
  />
<missing-glyph horiz-adv-x="433" 
 />
    <glyph glyph-name=".notdef" horiz-adv-x="433" 
 />
    <glyph glyph-name=".null" horiz-adv-x="0" 
 />
    <glyph glyph-name="nonmarkingreturn" horiz-adv-x="333" 
 />
    <glyph glyph-name="space" unicode=" " horiz-adv-x="270" 
 />
    <glyph glyph-name="exclam" unicode="!" horiz-adv-x="188" 
d="M60 724q0 14 10 24t24 10t24 -10t10 -24l-10 -537q0 -10 -7 -17t-17 -7t-17 7t-7 17zM43 42q0 22 15 37t37 15q20 0 35 -15t15 -37q0 -20 -15 -35t-35 -15q-22 0 -37 15t-15 35z" />
    <glyph glyph-name="quotedbl" unicode="&#x22;" horiz-adv-x="231" 
d="M50 735q0 10 6.5 16.5t16.5 6.5t16.5 -6.5t6.5 -16.5v-166q0 -10 -6.5 -16.5t-16.5 -6.5t-16.5 6.5t-6.5 16.5v166zM135 735q0 10 6.5 16.5t16.5 6.5t16.5 -6.5t6.5 -16.5v-166q0 -10 -6.5 -16.5t-16.5 -6.5t-16.5 6.5t-6.5 16.5v166z" />
    <glyph glyph-name="numbersign" unicode="#" horiz-adv-x="620" 
d="M352 256h-129l-53 -236q-2 -11 -12 -19.5t-21 -8.5t-17 8.5t-4 19.5l52 236h-129q-11 0 -19 8t-8 19t8 19t19 8h139l28 129h-167q-11 0 -18.5 8t-7.5 19t7.5 19.5t18.5 8.5h179l48 236q2 11 12.5 19.5t21.5 8.5t17.5 -8.5t4.5 -19.5l-48 -236h128l48 236q2 11 12.5 19.5
t21.5 8.5t17.5 -8.5t4.5 -19.5l-48 -236h123q11 0 19 -8.5t8 -19.5t-8 -19t-19 -8h-137l-28 -129h165q11 0 19 -8t8 -19t-8 -19t-19 -8h-175l-52 -236q-2 -11 -12.5 -19.5t-21.5 -8.5t-17.5 8.5t-4.5 19.5zM261 439l-27 -129h128l28 129h-129z" />
    <glyph glyph-name="dollar" unicode="$" horiz-adv-x="591" 
d="M374 52q0 24 23 32q39 19 63 50t24 73q0 50 -37 85t-93 51l-129 32q-36 9 -67 26.5t-53.5 41.5t-35 54t-12.5 63q0 54 29 97t79 68q4 2 9 4t10 2q14 0 24 -10t10 -24q0 -24 -22 -32q-33 -17 -52 -44t-19 -61q0 -44 33 -74.5t84 -44.5l125 -32q40 -10 74 -29t58.5 -45.5
t38 -58.5t13.5 -69q0 -62 -36.5 -107.5t-90.5 -77.5q-7 -4 -16 -4q-14 0 -24 10t-10 24zM94 133q40 -32 89 -50t113 -19q14 0 24.5 -10.5t10.5 -24.5v-73q0 -14 -10.5 -24.5t-24.5 -10.5t-24.5 10.5t-10.5 24.5v41q-61 6 -112.5 26.5t-94.5 53.5q-14 9 -14 28q0 14 10 24
t24 10q11 0 20 -6zM261 788q0 14 10.5 24.5t24.5 10.5t24.5 -10.5t10.5 -24.5v-35q51 -5 96 -21.5t84 -41.5q7 -5 11.5 -12.5t4.5 -16.5q0 -14 -10 -24t-24 -10q-13 0 -20 6q-38 24 -81.5 38t-95.5 15q-14 0 -24.5 10.5t-10.5 24.5v67z" />
    <glyph glyph-name="percent" unicode="%" horiz-adv-x="599" 
d="M286 119q0 28 10.5 53t29 43.5t43.5 29t53 10.5t53 -10.5t43.5 -29t29.5 -43.5t11 -53q0 -29 -11 -53.5t-29.5 -43t-43.5 -29t-53 -10.5t-53 10.5t-43.5 29t-29 43t-10.5 53.5zM340 119q0 -35 24 -58.5t58 -23.5t57.5 23.5t23.5 58.5t-23.5 58.5t-57.5 23.5t-58 -23.5
t-24 -58.5zM313 631q0 -29 -10.5 -53.5t-29 -43t-43.5 -29t-53 -10.5t-53 10.5t-43.5 29t-29.5 43t-11 53.5q0 28 11 53t29.5 43.5t43.5 29t53 10.5t53 -10.5t43.5 -29t29 -43.5t10.5 -53zM259 631q0 35 -24 58.5t-58 23.5t-57.5 -23.5t-23.5 -58.5t23.5 -58.5t57.5 -23.5
t58 23.5t24 58.5zM449 758q15 0 22.5 -12t0.5 -28l-297 -710q-7 -16 -25 -16q-15 0 -22.5 12t-0.5 28l297 710q7 16 25 16z" />
    <glyph glyph-name="ampersand" unicode="&#x26;" horiz-adv-x="665" 
d="M109 239q0 -38 13.5 -71.5t37.5 -59.5t56.5 -41t70.5 -15q46 0 84 20q10 7 20 7q14 0 24 -10t10 -24q0 -20 -17 -30q-53 -32 -121 -32q-52 0 -97 20.5t-78.5 55.5t-52.5 81.5t-19 98.5t19 98t52.5 81t78.5 55.5t97 20.5q21 0 40 8t33 22t22 32.5t8 39.5t-8 40t-22 32.5
t-33 21.5t-40 8t-39.5 -8t-32.5 -21.5t-22 -32.5t-8 -40q0 -13 3 -24.5t6 -24.5q3 -12 -8.5 -23t-25.5 -11q-26 0 -32 21q-11 30 -11 62q0 35 13.5 66t36.5 54.5t54 37t66 13.5t66 -13.5t54 -37t36.5 -54.5t13.5 -66t-13.5 -66.5t-36.5 -54.5t-54 -36.5t-66 -13.5
q-38 0 -70.5 -15t-56.5 -40.5t-37.5 -59.5t-13.5 -71zM583 -8q-25 0 -46.5 9.5t-38 25.5t-26 37.5t-9.5 46.5v264q0 25 9.5 46.5t26 37.5t38 25.5t46.5 9.5h8q14 0 24 -10t10 -24t-10 -24t-24 -10h-8q-22 0 -37 -15t-15 -36v-264q0 -21 15 -36t37 -15h8q14 0 24 -10t10 -24
t-10 -24t-24 -10h-8z" />
    <glyph glyph-name="quotesingle" unicode="'" horiz-adv-x="146" 
d="M50 735q0 10 6.5 16.5t16.5 6.5t16.5 -6.5t6.5 -16.5v-166q0 -10 -6.5 -16.5t-16.5 -6.5t-16.5 6.5t-6.5 16.5v166z" />
    <glyph glyph-name="parenleft" unicode="(" horiz-adv-x="280" 
d="M148 289q0 -117 23 -230.5t74 -210.5q8 -16 0.5 -30t-25.5 -14q-19 0 -27 18q-55 102 -84 222t-29 245t29 245.5t84 222.5q8 18 27 18q18 0 25.5 -14t-0.5 -30q-51 -97 -74 -211t-23 -231z" />
    <glyph glyph-name="parenright" unicode=")" horiz-adv-x="280" 
d="M132 289q0 117 -23 231t-74 211q-8 16 -0.5 30t25.5 14q19 0 27 -18q55 -102 84 -222.5t29 -245.5t-29 -245t-84 -222q-8 -18 -27 -18q-18 0 -25.5 14t0.5 30q51 97 74 210.5t23 230.5z" />
    <glyph glyph-name="asterisk" unicode="*" horiz-adv-x="358" 
d="M270 624q10 -5 12.5 -15t-2.5 -20q-5 -9 -15 -11.5t-20 3.5l-48 34l7 -58q0 -11 -7 -18.5t-18 -7.5t-18 7.5t-7 18.5l6 59l-47 -35q-10 -6 -20 -3.5t-15 12.5q-5 9 -2.5 19t12.5 15l54 24l-54 24q-10 5 -12.5 15t2.5 19q5 10 15 12.5t20 -3.5l47 -35l-6 59q0 11 7 18.5
t18 7.5t18 -7.5t7 -18.5l-7 -59l48 35q10 6 20 3.5t16 -12.5q5 -9 2 -19t-13 -15l-55 -24l55 -24v0z" />
    <glyph glyph-name="plus" unicode="+" horiz-adv-x="679" 
d="M42 289q0 14 10 24t24 10h230v230q0 14 10 24t24 10t24 -10t10 -24v-230h229q14 0 24 -10t10 -24t-10 -23.5t-24 -9.5h-229v-230q0 -14 -10 -24t-24 -10t-24 10t-10 24v230h-230q-14 0 -24 9.5t-10 23.5z" />
    <glyph glyph-name="comma" unicode="," horiz-adv-x="222" 
d="M41 -90q0 20 20 20q14 0 24 13t10 29v22q-2 -2 -4.5 -2h-4.5q-22 0 -36.5 15t-14.5 37q0 21 14.5 36t36.5 15q21 0 36 -15t15 -36v-67q0 -35 -21.5 -60t-54.5 -27q-20 0 -20 20z" />
    <glyph glyph-name="hyphen" unicode="-" horiz-adv-x="465" 
d="M64 289q0 14 9.5 24t23.5 10h272q14 0 24 -10t10 -24t-10 -23.5t-24 -9.5h-272q-14 0 -23.5 9.5t-9.5 23.5z" />
    <glyph glyph-name="period" unicode="." horiz-adv-x="222" 
d="M87 -8q-22 0 -37 15t-15 36t15 36t37 15q20 0 35 -15t15 -36t-15 -36t-35 -15z" />
    <glyph glyph-name="slash" unicode="/" horiz-adv-x="456" 
d="M79 -8q-15 0 -22.5 12t-0.5 28l296 711q5 15 24 15q16 0 23 -11.5t2 -25.5l-297 -713q-7 -16 -25 -16z" />
    <glyph glyph-name="zero" unicode="0" horiz-adv-x="598" 
d="M546 230q0 -51 -19.5 -96t-52.5 -78.5t-78 -53t-96 -19.5t-96.5 19.5t-79 53t-53 78.5t-19.5 96v289q0 51 19.5 96.5t53 79t79 53t96.5 19.5t96 -19.5t78 -53t52.5 -79t19.5 -96.5v-289zM479 519q0 37 -14 70t-38.5 57t-57 38t-69.5 14t-69.5 -14t-57 -38t-38.5 -57
t-14 -70v-289q0 -37 14 -69.5t38.5 -56.5t57 -38t69.5 -14t69.5 14t57 38t38.5 56.5t14 69.5v289z" />
    <glyph glyph-name="one" unicode="1" horiz-adv-x="336" 
d="M207 661l-111 -64q-8 -5 -18 -5q-14 0 -24 9.5t-10 23.5q0 22 20 32l157 94q10 7 21 7q14 0 24 -10t10 -24v-698q0 -14 -10.5 -24t-24.5 -10t-24 10t-10 24v635z" />
    <glyph glyph-name="two" unicode="2" horiz-adv-x="591" 
d="M59 34q0 16 12 26l345 318q31 26 49.5 63t18.5 80q0 39 -15 71.5t-40.5 56.5t-59.5 37t-73 13q-38 0 -72 -14.5t-59.5 -40t-40.5 -60t-15 -73.5q0 -14 -10.5 -24t-24.5 -10t-24 10t-10 24q0 53 20 100t54.5 81.5t81.5 54.5t100 20t99.5 -18.5t81 -51.5t54.5 -78t20 -98
q0 -59 -24.5 -110t-66.5 -86l-276 -257h310q14 0 24 -10t10 -24t-10 -24t-24 -10h-401q-14 0 -24 10t-10 24z" />
    <glyph glyph-name="three" unicode="3" horiz-adv-x="589" 
d="M320 450q0 14 10 24t24 10q6 0 15 -3q39 -12 72 -35.5t56.5 -55.5t37 -71t13.5 -82q0 -53 -20 -99t-54.5 -80.5t-81 -54.5t-99.5 -20q-48 0 -91 16.5t-77 45t-56 67.5t-29 84q-3 20 8 31.5t25 11.5t23.5 -9.5t11.5 -22.5q6 -33 22.5 -61.5t41 -49.5t55.5 -33t66 -12
q39 0 73 14.5t59.5 40t40.5 59t15 72.5q0 32 -10.5 61t-28.5 53t-43 41t-54 25q-25 7 -25 33zM161 371q-10 -10 -24 -10t-24 10t-10 24q0 19 14 28l272 259h-266q-14 0 -24 10t-10 24t10 24t24 10h349q14 0 24 -10t10 -24q0 -16 -12 -26z" />
    <glyph glyph-name="four" unicode="4" horiz-adv-x="613" 
d="M396 611l-280 -373h433q14 0 24 -10t10 -24t-10 -23.5t-24 -9.5h-86v-145q0 -14 -10 -24t-24 -10t-23.5 10t-9.5 24v145h-344q-14 0 -24 10t-10 24q0 12 9 23l373 515q10 15 29 15q14 0 24 -10t10 -24v-393q0 -14 -10 -23.5t-24 -9.5t-23.5 9.5t-9.5 23.5v280z" />
    <glyph glyph-name="five" unicode="5" horiz-adv-x="589" 
d="M223 456q0 14 9 23t22 11q19 3 40 3q53 0 99.5 -20t81 -54.5t54.5 -81.5t20 -100t-20 -99t-54.5 -80.5t-81 -54.5t-99.5 -20t-100 20t-81.5 54.5t-54.5 80.5t-20 99q0 14 10 24t24 10t24.5 -10t10.5 -24q0 -39 14.5 -72.5t40 -59t59.5 -40t73 -14.5t73 14.5t59.5 40
t40.5 59t15 72.5t-15 73.5t-40.5 60t-59.5 40t-73 14.5q-9 0 -17 -0.5t-19 -2.5q-14 -2 -24.5 9t-10.5 25zM122 351q-14 2 -22 13.5t-6 25.5l48 328q2 14 10.5 23t22.5 9h267q14 0 24 -10t10 -24t-10 -24t-24 -10h-238l-43 -304q-2 -14 -13.5 -21.5t-25.5 -5.5z" />
    <glyph glyph-name="six" unicode="6" horiz-adv-x="591" 
d="M280 458q0 14 10 23.5t24 9.5q48 0 91 -20.5t75.5 -55.5t51.5 -81t19 -97q0 -53 -20 -99t-54.5 -80.5t-81 -54.5t-99.5 -20t-100 20t-81.5 54.5t-54.5 80.5t-20 99q0 41 12.5 77.5t32.5 67.5l240 361q10 15 28 15q14 0 24 -10t10 -24q0 -6 -2 -11t-4 -9l-236 -356
q-17 -23 -26.5 -51t-9.5 -60q0 -39 14.5 -72.5t40 -59t59.5 -40t73 -14.5t73 14.5t59.5 40t40.5 59t15 72.5q0 37 -13 69.5t-36 57.5t-54 41t-67 19q-14 0 -24 10t-10 24z" />
    <glyph glyph-name="seven" unicode="7" horiz-adv-x="539" 
d="M161 27q0 7 4 17l266 638h-375q-14 0 -24 10t-10 24t10 24t24 10h427q14 0 24 -10t10 -24q0 -8 -3 -15l-286 -688q-10 -21 -32 -21q-14 0 -24.5 10.5t-10.5 24.5z" />
    <glyph glyph-name="eight" unicode="8" horiz-adv-x="602" 
d="M165 464q0 -14 -9.5 -23.5t-23.5 -9.5q-17 0 -27 13q-19 23 -29 51t-10 66q0 48 18.5 86.5t50.5 65t74.5 40.5t91.5 14t91.5 -14t74.5 -40.5t50.5 -64.5t18.5 -86t-18.5 -86t-50.5 -64.5t-74.5 -40.5t-91.5 -14q-40 0 -75 -9.5t-61.5 -28.5t-41.5 -48t-15 -68t15 -68
t41.5 -48t61.5 -28t75 -9t75 9t61.5 28t41.5 48t15 68q0 56 -37 95q-13 10 -13 27q0 14 9.5 23.5t23.5 9.5q17 0 26 -11q28 -27 43.5 -62.5t15.5 -81.5q0 -53 -20.5 -94t-56 -69t-83 -42.5t-101.5 -14.5t-101.5 14.5t-83 42.5t-56 69.5t-20.5 94.5t20.5 94.5t56 69.5
t83 42.5t101.5 14.5q34 0 64.5 8.5t53.5 25.5t36 42.5t13 59.5t-13 59.5t-36 43t-53.5 26t-64.5 8.5q-35 0 -65 -8.5t-53 -26t-36 -43t-13 -59.5q0 -22 6 -41t17 -33q8 -10 8 -23z" />
    <glyph glyph-name="nine" unicode="9" horiz-adv-x="591" 
d="M311 292q0 -14 -10 -23.5t-24 -9.5q-48 0 -91 20.5t-75.5 55.5t-51.5 81t-19 97q0 52 20 98.5t54.5 81t81 54.5t99.5 20t100 -20t81.5 -54.5t54.5 -81t20 -98.5q0 -41 -12.5 -77.5t-32.5 -67.5l-240 -361q-10 -15 -28 -15q-14 0 -24 10t-10 24q0 6 2 11t4 9l236 356
q17 23 26.5 51t9.5 60q0 39 -14.5 72.5t-40 59t-59.5 40t-73 14.5t-73 -14.5t-59.5 -40t-40.5 -59t-15 -72.5q0 -37 13 -69.5t36 -57.5t54 -41t67 -19q14 0 24 -10t10 -24z" />
    <glyph glyph-name="colon" unicode=":" horiz-adv-x="222" 
d="M137 43q0 -21 -15 -36t-36 -15t-36 15t-15 36t15 36t36 15t36 -15t15 -36zM35 535q0 22 15 37t36 15t36 -15t15 -37q0 -21 -15 -36t-36 -15t-36 15t-15 36z" />
    <glyph glyph-name="semicolon" unicode=";" horiz-adv-x="222" 
d="M35 535q0 22 15 37t36 15t36 -15t15 -37q0 -21 -15 -36t-36 -15t-36 15t-15 36zM41 -90q0 20 20 20q14 0 24 13t10 29v22q-2 -2 -4.5 -2h-4.5q-22 0 -36.5 15t-14.5 37q0 21 14.5 36t36.5 15q21 0 36 -15t15 -36v-67q0 -35 -21.5 -60t-54.5 -27q-20 0 -20 20z" />
    <glyph glyph-name="less" unicode="&#x3c;" horiz-adv-x="431" 
d="M24 289q0 10 5.5 18t13.5 14l292 209q9 9 22 9q14 0 24 -10t10 -24q0 -17 -14 -27l-265 -189l265 -189q14 -11 14 -27q0 -14 -10 -24t-24 -10q-13 0 -22 9l-292 209q-8 6 -13.5 14t-5.5 18z" />
    <glyph glyph-name="equal" unicode="=" horiz-adv-x="679" 
d="M42 375q0 14 10 24.5t24 10.5h527q14 -1 24 -11t10 -24t-10.5 -24t-24.5 -10h-526q-14 0 -24 10t-10 24zM42 205q0 14 9.5 24t23.5 10h528q14 0 24 -10t10 -24t-10 -23.5t-24 -9.5h-528q-14 0 -23.5 9.5t-9.5 23.5z" />
    <glyph glyph-name="greater" unicode="&#x3e;" horiz-adv-x="431" 
d="M407 289q0 -10 -5.5 -18t-13.5 -14l-292 -209q-9 -9 -22 -9q-14 0 -24 10t-10 24q0 8 4 15t10 12l265 189l-265 189q-14 10 -14 27q0 14 10 24t24 10q13 0 22 -9l292 -209q8 -6 13.5 -14t5.5 -18z" />
    <glyph glyph-name="question" unicode="?" horiz-adv-x="587" 
d="M258 291q0 14 10 24t24 10q39 0 73 14.5t59.5 40t40.5 60t15 73.5t-15 72.5t-40.5 59t-59.5 40t-73 14.5q-35 0 -66 -12t-55.5 -33t-41 -49.5t-22.5 -61.5q-2 -13 -11.5 -22.5t-23.5 -9.5t-25.5 11.5t-7.5 31.5q7 45 29.5 84t56.5 67.5t76.5 45t90.5 16.5q53 0 99.5 -20
t81 -54.5t54.5 -81t20 -98.5q0 -49 -17 -92.5t-46.5 -77.5t-70 -56t-86.5 -28v-54q0 -14 -10.5 -24t-24.5 -10t-24 10t-10 24v86zM342 43q0 -21 -15 -36t-35 -15q-22 0 -37 15t-15 36q0 22 15 37t37 15q20 0 35 -15t15 -37z" />
    <glyph glyph-name="at" unicode="@" horiz-adv-x="874" 
d="M432 221q37 0 69 17q5 2 9.5 4t10.5 2q14 0 24 -10t10 -24q0 -20 -18 -30q-47 -26 -105 -26q-46 0 -86.5 17t-70.5 47t-47 70.5t-17 86.5t17 86.5t47 70.5t70.5 47t86.5 17t86 -17t70 -47t47.5 -70.5t17.5 -86.5v-102q0 -22 16 -37t36 -15t35 15t15 37v102
q0 67 -25.5 126t-69 102.5t-102.5 69t-126 25.5t-126 -25.5t-103 -69t-69.5 -102.5t-25.5 -126t25.5 -126t69.5 -102.5t103 -69t126 -25.5q38 0 75.5 9t70.5 25q16 8 32.5 -2.5t16.5 -29.5q0 -11 -6.5 -20t-17.5 -13q-39 -18 -82 -28t-89 -10q-81 0 -152.5 31t-125 84
t-84 124.5t-30.5 152.5t30.5 152.5t84 124.5t125 84t152.5 31t152.5 -31t124.5 -84t84 -124.5t31 -152.5v-102q0 -25 -9.5 -46.5t-25.5 -37.5t-37.5 -25.5t-46.5 -9.5t-46.5 9.5t-37.5 25.5t-25.5 37.5t-9.5 46.5v102q0 31 -12 59t-33 49t-49 33t-60 12t-59.5 -12t-48.5 -33
t-33 -49t-12 -59q0 -32 12 -60t33 -49t48.5 -33t59.5 -12z" />
    <glyph glyph-name="A" unicode="A" horiz-adv-x="690" 
d="M345 637l-259 -625q-9 -20 -32 -20q-15 0 -24.5 9.5t-9.5 23.5q0 8 3 14l291 699q8 20 31 20t31 -20l167 -402q3 -6 3 -14q0 -14 -9.5 -23.5t-24.5 -9.5q-23 0 -32 20zM561 238q10 0 18 -6t13 -15l75 -178q3 -6 3 -14q0 -14 -9.5 -23.5t-24.5 -9.5q-23 0 -32 20l-63 157
h-284q-14 0 -24 10t-10 24t10 24.5t24 10.5h304z" />
    <glyph glyph-name="B" unicode="B" horiz-adv-x="663" 
d="M501 478q0 5 2 9t4 9q13 28 13 58q0 26 -10 49.5t-27.5 41t-40.5 27.5t-49 10h-264v-613h281q30 0 56 11t45.5 30.5t31 46t11.5 56.5t-11.5 56t-31 45.5t-45.5 31t-56 11.5h-187q-14 0 -24 10t-10 24t10 24.5t24 10.5h187q44 0 83 -16.5t68 -45.5t45.5 -68t16.5 -83
t-16.5 -83t-45.5 -68t-68 -45.5t-83 -16.5h-316q-14 0 -24 10t-10 24v682q0 14 10 24t24 10h299q40 0 76 -15.5t62.5 -42t42 -62.5t15.5 -76q0 -27 -7 -50t-19 -42q-5 -8 -12.5 -13t-16.5 -5q-14 0 -23.5 10t-9.5 24z" />
    <glyph glyph-name="C" unicode="C" horiz-adv-x="747" 
d="M704 650q10 -10 10.5 -24t-9.5 -24q-11 -10 -24.5 -10t-23.5 10q-48 46 -106 71t-124 25q-68 0 -127 -25.5t-102.5 -69.5t-68.5 -103t-25 -126t25 -126t68.5 -102.5t102.5 -69t127 -25.5q67 0 126 25t104 68q10 9 24 9t24 -10t9.5 -23.5t-10.5 -23.5q-56 -54 -126.5 -84
t-151.5 -29q-81 0 -152.5 30.5t-124.5 83.5t-84 124.5t-31 152.5t31 152.5t84 125t124.5 84t152.5 30.5q81 1 152.5 -30.5t125.5 -85.5z" />
    <glyph glyph-name="D" unicode="D" horiz-adv-x="726" 
d="M60 716q0 14 10 24t24 10h222q78 0 146 -29.5t119 -80.5t80.5 -119t29.5 -146t-29.5 -146t-80.5 -119t-119 -80.5t-146 -29.5h-93q-14 0 -24 10t-10 24t10 24t24 10h93q64 0 120 24t97.5 66t65.5 98t24 119q0 64 -24 120t-65.5 97.5t-97.5 65.5t-120 24h-187v-656
q0 -14 -10 -24t-24 -10t-24.5 10t-10.5 24v690z" />
    <glyph glyph-name="E" unicode="E" horiz-adv-x="641" 
d="M60 374q0 14 10 24.5t24 10.5h409q14 0 24 -10.5t10 -24.5t-10 -24t-24 -10h-374v-271h443q14 -1 24 -11t10 -24t-10 -24t-24 -10h-478q-14 0 -24 10t-10 24v340zM60 716q0 14 10 24t24 10h478q14 0 24 -10t10 -24t-10 -24t-24 -10h-443v-170q0 -14 -10.5 -24t-24.5 -10
t-24 10t-10 24v204z" />
    <glyph glyph-name="F" unicode="F" horiz-adv-x="603" 
d="M60 374q0 14 10 24.5t24 10.5h391q14 0 24 -10.5t10 -24.5t-10 -24t-24 -10h-356v-314q0 -14 -10.5 -24t-24.5 -10t-24 10t-10 24v348zM60 716q0 14 10 24t24 10h460q14 0 24 -10t10 -24t-10 -24t-24 -10h-425v-170q0 -14 -10.5 -24t-24.5 -10t-24 10t-10 24v204z" />
    <glyph glyph-name="G" unicode="G" horiz-adv-x="781" 
d="M691 409q14 0 24 -10t10 -24v-242q0 -12 -9 -23q-54 -60 -128 -94t-161 -33q-81 0 -152.5 30.5t-124.5 83.5t-84 125t-31 153t31 152.5t84 124.5t124.5 84t152.5 31t153 -31t126 -85q10 -11 10 -24.5t-10 -23.5q-11 -11 -24.5 -11t-23.5 11q-48 45 -106 70t-124 25
q-68 0 -127 -25.5t-102.5 -69t-68.5 -102.5t-25 -126t25 -126t68.5 -102.5t102.5 -69t127 -25.5q67 0 126 25t104 70v192h-231q-14 0 -24.5 10.5t-10.5 24.5t10.5 24.5t24.5 10.5h264z" />
    <glyph glyph-name="H" unicode="H" horiz-adv-x="699" 
d="M60 374q0 14 10 24t24 10h476v316q0 14 10 24t24 10t24.5 -10t10.5 -24v-351q0 -14 -10.5 -24t-24.5 -10h-475v-313q-1 -14 -11 -24t-24 -10t-24 10t-10 24v348zM60 724q0 14 10 24t24 10t24.5 -10t10.5 -24v-212q0 -14 -10.5 -24t-24.5 -10t-24 10t-10 24v212zM570 235
q0 14 10 24t24 10t24.5 -10t10.5 -24v-209q0 -14 -10.5 -24t-24.5 -10t-24 10t-10 24v209z" />
    <glyph glyph-name="I" unicode="I" 
d="M60 724q0 14 10 24t24 10t24.5 -10t10.5 -24v-698q0 -14 -10.5 -24t-24.5 -10t-24 10t-10 24v698z" />
    <glyph glyph-name="J" unicode="J" horiz-adv-x="436" 
d="M306 725q0 14 10 24t24 10q15 -1 25.5 -10.5t10.5 -23.5v-536q0 -42 -16.5 -79.5t-44.5 -65.5t-65 -44.5t-79 -16.5t-79.5 16.5t-65.5 44.5q-11 10 -11.5 24.5t10.5 24.5q10 11 24.5 10t27.5 -14q19 -18 43 -27t51 -9q28 0 52.5 10.5t43 29t29.5 43t11 52.5l-1 537v0z
" />
    <glyph glyph-name="K" unicode="K" horiz-adv-x="617" 
d="M532 748q10 10 23.5 10t24.5 -10q10 -11 10.5 -25t-9.5 -24l-324 -324l324 -325q11 -10 11 -23.5t-11 -24.5q-10 -10 -23.5 -10t-24.5 10l-349 350q-11 10 -11 23.5t11 24.5zM60 724q0 14 10 24t24 10t24.5 -10t10.5 -24v-698q0 -14 -10.5 -24t-24.5 -10t-24 10t-10 24
v698z" />
    <glyph glyph-name="L" unicode="L" horiz-adv-x="586" 
d="M60 724q0 14 10 24t24 10t24.5 -10t10.5 -24v-656h408q14 0 24 -10t10 -24t-10 -24t-24 -10h-443q-14 0 -24 10t-10 24v690z" />
    <glyph glyph-name="M" unicode="M" horiz-adv-x="870" 
d="M810 26q0 -14 -10.5 -24t-24.5 -10t-24 10t-10 24v616l-282 -284q-10 -10 -24 -10t-24 10l-282 284v-616q0 -14 -10.5 -24t-24.5 -10t-24 10t-10 24v698q0 14 10 24t24 10t24 -10l317 -316l316 316q10 10 24 10t24.5 -10t10.5 -24v-698z" />
    <glyph glyph-name="N" unicode="N" horiz-adv-x="700" 
d="M605 758q14 0 24.5 -10t10.5 -24v-698q0 -14 -10.5 -24t-24.5 -10q-18 0 -28 15l-448 615v-596q0 -14 -10.5 -24t-24.5 -10t-24 10t-10 24v698q0 14 10 24t24 10q18 0 28 -13l449 -617v596q0 14 10 24t24 10z" />
    <glyph glyph-name="O" unicode="O" horiz-adv-x="854" 
d="M750 375q0 67 -25.5 126t-69 102.5t-102.5 69t-126 25.5t-126 -25.5t-103 -69t-69.5 -102.5t-25.5 -126t25.5 -126t69.5 -102.5t103 -69t126 -25.5t126 25.5t102.5 69t69 102.5t25.5 126zM819 375q0 -81 -31 -152.5t-84 -124.5t-124.5 -84t-152.5 -31t-152.5 31t-125 84
t-84 124.5t-30.5 152.5t30.5 152.5t84 124.5t125 84t152.5 31t152.5 -31t124.5 -84t84 -124.5t31 -152.5z" />
    <glyph glyph-name="P" unicode="P" horiz-adv-x="658" 
d="M189 306q0 14 9.5 24t23.5 10h163q35 0 66 13.5t54 36.5t36.5 54.5t13.5 66.5q0 36 -13.5 67t-36.5 54t-54 36.5t-66 13.5h-256v-656q0 -14 -10.5 -24t-24.5 -10t-24 10t-10 24v690q0 14 10.5 24t24.5 10h290q49 0 92.5 -19t75.5 -51t51 -76t19 -93t-19 -92.5t-51 -75.5
t-75.5 -51t-92.5 -19h-163q-14 0 -23.5 9.5t-9.5 23.5z" />
    <glyph glyph-name="Q" unicode="Q" horiz-adv-x="855" 
d="M646 152q0 13 9 24q37 42 57.5 94.5t20.5 112.5q0 65 -25 122.5t-67.5 100t-100 67.5t-122.5 25t-122.5 -25t-100 -67.5t-67 -100t-24.5 -122.5t24.5 -122.5t67 -100t100 -67t122.5 -24.5h339q14 0 24.5 -10.5t10.5 -24.5t-10.5 -24t-24.5 -10h-339q-80 0 -149.5 30
t-121.5 82t-82 121.5t-30 149.5q0 79 30 149t82 122.5t121.5 82.5t149.5 30q79 0 149 -30t122.5 -82.5t82.5 -122.5t30 -149q0 -72 -25 -135t-67 -113q-11 -17 -30 -17q-14 0 -24 10t-10 24z" />
    <glyph glyph-name="R" unicode="R" horiz-adv-x="663" 
d="M250 306q0 14 9.5 24t23.5 10h102q35 0 66 13.5t54 36.5t36.5 54.5t13.5 66.5q0 36 -13.5 67t-36.5 54t-54 36.5t-66 13.5h-256v-656q0 -14 -10.5 -24t-24.5 -10t-24 10t-10 24v690q0 14 10.5 24t24.5 10h290q49 0 92.5 -19t75.5 -51t51 -76t19 -93t-19 -92.5t-51 -75.5
t-75.5 -51t-92.5 -19h-33l165 -227q8 -12 5.5 -26t-13.5 -22q-11 -9 -25 -6.5t-23 13.5l-203 278q-8 10 -8 23z" />
    <glyph glyph-name="S" unicode="S" horiz-adv-x="591" 
d="M40 93q0 14 10 24t24 10q11 0 20 -6q42 -32 92.5 -50.5t114.5 -18.5q39 0 72 11.5t58 32t39 47.5t14 58q0 50 -37 88t-93 54l-129 32q-36 9 -67 27.5t-53.5 44t-35 56t-12.5 63.5q0 42 18 78.5t49.5 63.5t74 43t92.5 16q64 0 118.5 -17.5t101.5 -47.5q7 -5 11.5 -12.5
t4.5 -16.5q0 -14 -10 -24t-24 -10q-13 0 -20 6q-38 25 -83 39t-99 14q-36 0 -66 -10.5t-52.5 -28.5t-35 -42t-12.5 -51q0 -44 33 -77.5t84 -47.5l125 -32q40 -10 74 -30t58.5 -47.5t38 -60.5t13.5 -70q0 -45 -19 -84.5t-53 -69.5t-79.5 -47t-98.5 -17q-74 0 -135 22t-112 60
q-14 9 -14 28z" />
    <glyph glyph-name="T" unicode="T" horiz-adv-x="599" 
d="M10 716q0 14 10 24t24 10h129q14 0 23.5 -10t9.5 -24t-9.5 -24t-23.5 -10h-129q-14 0 -24 10t-10 24zM266 716q0 14 10 24t24 10h255q14 0 24 -10t10 -24t-10 -24t-24 -10h-220v-656q0 -14 -10.5 -24t-24.5 -10t-24 10t-10 24v690z" />
    <glyph glyph-name="U" unicode="U" horiz-adv-x="699" 
d="M571 724q0 14 10 24t24 10t24 -10t10 -24v-451q0 -60 -23 -113t-62 -92t-91.5 -62t-112.5 -23t-113 23t-92 62t-62 92t-23 113v451q0 14 10 24t24 10t24 -10t10 -24v-451q0 -46 17.5 -86.5t47.5 -70.5t70.5 -47t86.5 -17t86 17t70 47t47.5 70.5t17.5 86.5v451v0z" />
    <glyph glyph-name="V" unicode="V" horiz-adv-x="680" 
d="M340 113l259 625q9 20 32 20q15 0 24.5 -9.5t9.5 -23.5q0 -8 -3 -14l-291 -699q-8 -20 -31 -20t-31 20l-291 699q-3 6 -3 14q0 14 9.5 23.5t24.5 9.5q23 0 32 -20z" />
    <glyph glyph-name="W" unicode="W" horiz-adv-x="953" 
d="M16 713q-4 15 5 30t27 15q12 0 21.5 -6.5t12.5 -17.5l181 -589l181 589q4 12 13.5 18t20 6t20 -6t13.5 -18l180 -589l180 589q4 11 13 17.5t21 6.5q17 0 26.5 -14t5.5 -31l-213 -697q-4 -12 -13.5 -18t-20 -6t-19.5 6t-13 18l-181 594l-181 -594q-4 -12 -13.5 -18t-20 -6
t-20 6t-13.5 18l-213 697v0z" />
    <glyph glyph-name="X" unicode="X" horiz-adv-x="634" 
d="M81 6q-8 -12 -22 -14t-26 7q-11 8 -13.5 22.5t6.5 25.5l525 697q8 12 22.5 13.5t25.5 -6.5q12 -9 14 -23t-7 -25zM369 248q-9 11 -7 25t14 23q11 8 25.5 6.5t22.5 -13.5l182 -242q9 -11 6.5 -25.5t-13.5 -22.5q-12 -9 -26 -7t-22 14zM26 703q-9 11 -7 25t14 23
q11 8 25.5 6.5t22.5 -13.5l182 -242q9 -11 6.5 -25.5t-13.5 -22.5q-12 -9 -26 -7t-22 14z" />
    <glyph glyph-name="Y" unicode="Y" horiz-adv-x="626" 
d="M343 343v-317q0 -14 -10 -24t-24 -10t-24 10t-10 24v327q0 13 7 21l263 370q10 14 28 14q10 0 18 -5.5t12 -13.5t4 -17.5t-6 -17.5zM17 705q-8 11 -5.5 25t13.5 22q12 8 26.5 6.5t22.5 -13.5l187 -263q8 -11 5 -25.5t-14 -22.5q-12 -8 -26 -6t-22 14z" />
    <glyph glyph-name="Z" unicode="Z" horiz-adv-x="641" 
d="M619 34q0 -14 -10 -24t-24 -10h-529q-14 0 -24 10t-10 24q0 12 8 22l483 626h-457q-14 0 -24 10t-10 24t10 24t24 10h529q14 0 24 -10t10 -24q0 -12 -8 -22l-483 -626h457q14 0 24 -10t10 -24z" />
    <glyph glyph-name="bracketleft" unicode="[" horiz-adv-x="281" 
d="M114 -171q-14 0 -24 9.5t-10 23.5v854q0 14 10 24t24 10h111q14 0 24 -10t10 -24t-10 -23.5t-24 -9.5h-78v-787h78q14 0 24 -10t10 -24t-10 -23.5t-24 -9.5h-111z" />
    <glyph glyph-name="backslash" unicode="\" horiz-adv-x="456" 
d="M377 -8q-18 0 -25 16l-297 713q-5 14 2 25.5t23 11.5q19 0 24 -15l296 -711q7 -16 -0.5 -28t-22.5 -12z" />
    <glyph glyph-name="bracketright" unicode="]" horiz-adv-x="281" 
d="M56 -171q-14 0 -24 9.5t-10 23.5t10 24t24 10h78v787h-78q-14 0 -24 9.5t-10 23.5t10 24t24 10h111q14 0 24 -10t10 -24v-854q0 -14 -10 -23.5t-24 -9.5h-111z" />
    <glyph glyph-name="asciicircum" unicode="^" horiz-adv-x="539" 
d="M70 358q-12 8 -16 20.5t3 25.5l183 336q11 18 29.5 18t29.5 -18l183 -336q7 -13 3 -25.5t-16 -20.5q-29 -13 -45 14l-155 285l-154 -285q-16 -27 -45 -14z" />
    <glyph glyph-name="underscore" unicode="_" horiz-adv-x="519" 
d="M579 -91v-25h-579v25h579z" />
    <glyph glyph-name="grave" unicode="`" horiz-adv-x="351" 
d="M264 684q-7 -16 -24 -11l-133 34q-14 4 -19.5 16.5t-0.5 25.5q4 13 16.5 18.5t25.5 0.5l124 -59q7 -4 10.5 -10.5t0.5 -14.5z" />
    <glyph glyph-name="a" unicode="a" horiz-adv-x="715" 
d="M348 52q72 0 133 38q5 3 10.5 5.5t11.5 2.5q14 0 24 -10t10 -24q0 -11 -6 -18.5t-14 -12.5q-37 -25 -80 -37.5t-89 -12.5q-63 0 -119 24t-98 65.5t-66.5 97.5t-24.5 120q0 63 24.5 119t66.5 97.5t98 65.5t119 24q44 0 80 -11t65.5 -29.5t52.5 -43t40 -50.5v91q0 14 10 24
t24 10t24.5 -10t10.5 -24v-527q0 -14 -10.5 -24t-24.5 -10t-23 8.5t-11 21.5v268q0 49 -19 92.5t-51 76t-75.5 51t-92.5 18.5q-50 0 -93.5 -18.5t-75.5 -51t-51 -76t-19 -92.5q0 -50 19 -93.5t51 -75.5t75.5 -50.5t93.5 -18.5z" />
    <glyph glyph-name="b" unicode="b" horiz-adv-x="715" 
d="M367 527q-72 0 -133 -38q-5 -3 -10.5 -5.5t-11.5 -2.5q-14 0 -24 10t-10 24q0 11 6 18.5t14 12.5q37 25 80 37.5t89 12.5q63 0 119 -24t98 -65.5t66.5 -97.5t24.5 -120q0 -63 -24.5 -119t-66.5 -97.5t-98 -65.5t-119 -24q-44 0 -80 11t-65.5 29.5t-52.5 43t-40 50.5v-91
q0 -14 -10 -24t-24 -10t-24.5 10t-10.5 24v698q0 14 10.5 24t24.5 10t23 -8.5t11 -21.5v-439q0 -50 19 -93t51 -75.5t75.5 -51t92.5 -18.5t93 18.5t76 51t51 75.5t19 93t-19 93.5t-51 75.5t-76 50.5t-93 18.5z" />
    <glyph glyph-name="c" unicode="c" horiz-adv-x="609" 
d="M517 122q10 9 23.5 9t23.5 -10q11 -10 11 -24t-10 -23q-45 -44 -100 -67.5t-118 -23.5q-64 0 -120 24.5t-97.5 66t-65.5 97t-24 119.5t24 119.5t65.5 97t97.5 66t120 24.5q62 0 117.5 -23t100.5 -68q9 -10 9.5 -24t-9.5 -24t-24 -9.5t-25 10.5q-34 33 -77 51t-92 19
q-49 0 -92.5 -19t-75.5 -51.5t-51 -75.5t-19 -92q0 -50 19 -93.5t51 -76t75.5 -51t92.5 -18.5q51 0 94.5 19t75.5 51z" />
    <glyph glyph-name="d" unicode="d" horiz-adv-x="715" 
d="M348 52q72 0 133 38q5 3 10.5 5.5t11.5 2.5q14 0 24 -10t10 -24q0 -11 -6 -18.5t-14 -12.5q-37 -25 -80 -37.5t-89 -12.5q-63 0 -119 24t-98 65.5t-66.5 97.5t-24.5 120q0 63 24.5 119t66.5 97.5t98 65.5t119 24q44 0 80 -11t65.5 -29.5t52.5 -43t40 -50.5v262
q0 14 10 24t24 10t24.5 -10t10.5 -24v-698q0 -14 -10.5 -24t-24.5 -10t-23 8.5t-11 21.5v268q0 49 -19 92.5t-51 76t-75.5 51t-92.5 18.5q-50 0 -93.5 -18.5t-75.5 -51t-51 -76t-19 -92.5q0 -50 19 -93.5t51 -75.5t75.5 -50.5t93.5 -18.5z" />
    <glyph glyph-name="e" unicode="e" horiz-adv-x="691" 
d="M160 290q0 14 10 24t24 10h386q-6 43 -26.5 80.5t-51.5 65t-71 43t-85 15.5q-49 0 -92 -18.5t-75.5 -51t-51 -76t-18.5 -92.5q0 -50 18.5 -93.5t51 -75.5t75.5 -50.5t92 -18.5q60 0 109.5 26t81.5 73q10 17 29 17q11 0 19 -5.5t12 -13.5t3.5 -17.5t-5.5 -17.5
q-17 -26 -43 -50t-58.5 -42t-70 -28.5t-77.5 -10.5q-63 0 -119 24t-97.5 65.5t-65.5 97.5t-24 120q0 63 24 119t65.5 97.5t97.5 65.5t119 24t118 -24t96 -65t65.5 -97t25.5 -120q0 -14 -10.5 -24t-24.5 -10h-422q-14 0 -24 10t-10 24z" />
    <glyph glyph-name="f" unicode="f" horiz-adv-x="334" 
d="M12 545q0 14 10 24t24 10h42v61q0 29 11 52.5t29.5 40t43 25.5t52.5 9q25 0 47.5 -8.5t40.5 -22.5q12 -10 12 -26q0 -14 -10 -24t-24 -10q-12 0 -22 8q-18 15 -44 15q-28 0 -47.5 -15t-19.5 -44v-61h92q14 0 24 -10t10 -24t-10 -24t-24 -10h-203q-14 0 -24 10t-10 24z
M122 -8q-14 0 -24 10t-10 24v401q0 14 10 24.5t24 10.5t24.5 -10.5t10.5 -24.5v-401q0 -14 -10.5 -24t-24.5 -10z" />
    <glyph glyph-name="g" unicode="g" horiz-adv-x="713" 
d="M109 290q0 -50 19 -93.5t51 -75.5t75.5 -50.5t92.5 -18.5q72 0 133 38q5 3 10.5 5.5t11.5 2.5q14 0 24 -10t10 -24q0 -11 -6 -18.5t-14 -12.5q-37 -25 -80 -37.5t-89 -12.5q-64 0 -120 24t-97.5 65.5t-65.5 97.5t-24 120q0 63 24 119t65.5 97.5t97.5 65.5t120 24
q43 0 79.5 -11t66 -29.5t53 -43t40.5 -50.5v91q0 14 9.5 24t23.5 10t24 -10t10 -24v-454q0 -63 -24 -116t-65.5 -91t-97.5 -59t-119 -21q-60 0 -116 15t-106 40q-8 4 -13 11.5t-5 18.5q0 14 10 24t24 10q9 0 16 -4q86 -46 190 -46q46 0 88 13.5t74.5 40t53 65.5t23.5 90v200
q0 49 -19 92.5t-51 76t-76 51t-93 18.5t-92.5 -18.5t-75.5 -51t-51 -76t-19 -92.5z" />
    <glyph glyph-name="h" unicode="h" horiz-adv-x="614" 
d="M178 534q0 20 17 30q26 15 58 23.5t70 8.5q54 0 97 -17t72.5 -47.5t45.5 -73t16 -93.5v-339q0 -14 -10 -24t-24 -10t-23.5 10t-9.5 24v339q0 74 -45 118.5t-119 44.5q-27 0 -50 -6.5t-42 -17.5q-8 -5 -18 -5q-14 0 -24.5 10.5t-10.5 24.5zM60 724q0 14 10 24t24 10
t24.5 -10t10.5 -24v-698q0 -14 -10.5 -24t-24.5 -10t-24 10t-10 24v698z" />
    <glyph glyph-name="i" unicode="i" 
d="M60 553q0 14 10 24t24 10t24.5 -10t10.5 -24v-527q0 -14 -10.5 -24t-24.5 -10t-24 10t-10 24v527zM50 722q0 18 13 31.5t31 13.5t31.5 -13.5t13.5 -31.5t-13.5 -31t-31.5 -13t-31 13t-13 31z" />
    <glyph glyph-name="j" unicode="j" horiz-adv-x="263" 
d="M66 -120q29 0 48.5 19.5t19.5 49.5v604q0 14 10 24t24 10q14 -1 24.5 -10.5t10.5 -23.5v-604q0 -29 -11 -53.5t-29.5 -43.5t-43.5 -29.5t-53 -10.5q-29 0 -53 10.5t-42 28.5q-11 10 -11 23.5t11 24.5q10 10 24 9.5t25 -11.5q11 -8 22 -12.5t24 -4.5zM124 721q0 18 13 32
t31 14t31.5 -14t13.5 -32t-13.5 -31t-31.5 -13t-31 13t-13 31z" />
    <glyph glyph-name="k" unicode="k" horiz-adv-x="554" 
d="M484 579q11 10 25 9.5t24 -11.5q9 -11 9 -25t-11 -24l-271 -237l271 -239q11 -10 11 -24t-9 -25q-10 -11 -24 -11.5t-25 9.5l-301 267q-9 8 -9 23t11 25zM60 724q0 14 10 24t24 10t24.5 -10t10.5 -24v-698q0 -14 -10.5 -24t-24.5 -10t-24 10t-10 24v698z" />
    <glyph glyph-name="l" unicode="l" 
d="M60 724q0 14 10 24t24 10t24.5 -10t10.5 -24v-698q0 -14 -10.5 -24t-24.5 -10t-24 10t-10 24v698z" />
    <glyph glyph-name="m" unicode="m" horiz-adv-x="870" 
d="M485 534q0 18 15 29l4 3q47 30 112 30q45 0 81 -14.5t61 -40t38.5 -61.5t13.5 -78v-376q0 -14 -10 -24t-24 -10t-24 10t-10 24v376q0 57 -35 91.5t-91 34.5q-46 0 -77 -22q-9 -6 -20 -6q-14 0 -24 10t-10 24zM178 551q0 26 27 34q17 5 33.5 8t36.5 3q45 0 81 -14.5
t61 -40t38.5 -61.5t13.5 -78v-376q0 -14 -10 -24t-24 -10t-24 10t-10 24v376q0 57 -35 91.5t-91 34.5q-14 0 -26 -2.5t-23 -6.5q-8 -2 -14 -2q-14 0 -24 10t-10 24zM129 26q0 -14 -10.5 -24t-24.5 -10t-24 10t-10 24v527q0 14 10 24t24 10t24.5 -10t10.5 -24v-527z" />
    <glyph glyph-name="n" unicode="n" horiz-adv-x="614" 
d="M178 534q0 20 17 30q26 15 58 23.5t70 8.5q54 0 97 -17t72.5 -47.5t45.5 -73t16 -93.5v-339q0 -14 -10 -24t-24 -10t-23.5 10t-9.5 24v339q0 74 -45 118.5t-119 44.5q-27 0 -50 -6.5t-42 -17.5q-8 -5 -18 -5q-14 0 -24.5 10.5t-10.5 24.5zM60 553q0 14 10 24t24 10
t24.5 -10t10.5 -24v-527q0 -14 -10.5 -24t-24.5 -10t-24 10t-10 24v527z" />
    <glyph glyph-name="o" unicode="o" horiz-adv-x="695" 
d="M347 52q50 0 93.5 18.5t76 50.5t51.5 75.5t19 93.5q0 49 -19 92.5t-51.5 76t-76 51t-93.5 18.5q-49 0 -92.5 -18.5t-75.5 -51t-51 -76t-19 -92.5q0 -50 19 -93.5t51 -75.5t75.5 -50.5t92.5 -18.5zM347 -17q-63 0 -119 24t-98 65.5t-66 97.5t-24 120q0 63 24 119t66 97.5
t98 65.5t119 24q64 0 120 -24t98 -65.5t66 -97.5t24 -119q0 -64 -24 -120t-66 -97.5t-98 -65.5t-120 -24z" />
    <glyph glyph-name="p" unicode="p" horiz-adv-x="715" 
d="M367 527q-72 0 -133 -38q-5 -3 -10.5 -5.5t-11.5 -2.5q-14 0 -24 10t-10 24q0 11 6 18.5t14 12.5q37 25 80 37.5t89 12.5q63 0 119 -24t98 -65.5t66.5 -97.5t24.5 -120q0 -63 -24.5 -119t-66.5 -97.5t-98 -65.5t-119 -24q-44 0 -80 11t-65.5 29.5t-52.5 43t-40 50.5v-262
q0 -14 -10 -24t-24 -10t-24.5 10t-10.5 24v698q0 14 10.5 24t24.5 10t23 -8.5t11 -21.5v-268q0 -50 19 -93t51 -75.5t75.5 -51t92.5 -18.5t93 18.5t76 51t51 75.5t19 93t-19 93.5t-51 75.5t-76 50.5t-93 18.5z" />
    <glyph glyph-name="q" unicode="q" horiz-adv-x="715" 
d="M348 52q72 0 133 38q5 3 10.5 5.5t11.5 2.5q14 0 24 -10t10 -24q0 -11 -6 -18.5t-14 -12.5q-37 -25 -80 -37.5t-89 -12.5q-63 0 -119 24t-98 65.5t-66.5 97.5t-24.5 120q0 63 24.5 119t66.5 97.5t98 65.5t119 24q44 0 80 -11t65.5 -29.5t52.5 -43t40 -50.5v91q0 14 10 24
t24 10t24.5 -10t10.5 -24v-698q0 -14 -10.5 -24t-24.5 -10t-23 8.5t-11 21.5v439q0 49 -19 92.5t-51 76t-75.5 51t-92.5 18.5q-50 0 -93.5 -18.5t-75.5 -51t-51 -76t-19 -92.5q0 -50 19 -93.5t51 -75.5t75.5 -50.5t93.5 -18.5z" />
    <glyph glyph-name="r" unicode="r" horiz-adv-x="421" 
d="M129 26q0 -14 -10.5 -24t-24.5 -10t-24 10t-10 24v527q0 14 10 24t24 10t24.5 -10t10.5 -24v-527zM409 575q4 -9 3 -18t-6.5 -16.5t-14 -11.5t-18.5 -3q-42 5 -78 -14t-61 -52q-14 -19 -33.5 -17t-26.5 19q-9 15 0 31q15 26 38 46.5t50.5 33.5t58 19t61.5 4q20 -5 27 -21
z" />
    <glyph glyph-name="s" unicode="s" horiz-adv-x="547" 
d="M40 73q0 10 5 18t12.5 12.5t16.5 5t18 -4.5q37 -21 83 -36.5t95 -15.5q46 0 80 14t54.5 35t26.5 46.5t-4 49.5t-36.5 42.5t-71.5 26.5l-114 15q-29 4 -57.5 13t-51 27t-35 46t-10.5 70q2 34 19 63t46 50.5t67.5 34t82.5 12.5q57 0 101.5 -12t86.5 -35q9 -5 15 -12.5
t6 -18.5q0 -10 -5 -17.5t-12.5 -12t-17 -4.5t-18.5 5q-35 17 -72 27.5t-84 10.5q-56 0 -92.5 -24.5t-47 -55.5t9.5 -60t78 -39l130 -18q33 -5 62.5 -18.5t51.5 -35t35 -52t13 -67.5q0 -36 -16.5 -68t-47.5 -56t-74.5 -37.5t-97.5 -13.5q-58 0 -113.5 16.5t-100.5 43.5
q-16 10 -16 30z" />
    <glyph glyph-name="t" unicode="t" horiz-adv-x="312" 
d="M165 136q0 -28 19.5 -47.5t47.5 -19.5h25q14 0 24.5 -10.5t10.5 -24.5t-10.5 -24t-24.5 -10h-25q-28 0 -52.5 10.5t-43 29t-29.5 43.5t-11 53v291q0 14 10 24.5t24 10.5t24.5 -10.5t10.5 -24.5v-291zM20 545q0 14 10 24t24 10h42v104q0 14 10 24.5t24 10.5t24.5 -10.5
t10.5 -24.5v-104h92q14 0 24 -10t10 -24t-10 -24t-24 -10h-203q-14 0 -24 10t-10 24z" />
    <glyph glyph-name="u" unicode="u" horiz-adv-x="614" 
d="M436 45q0 -20 -17 -30q-26 -15 -58 -23.5t-70 -8.5q-54 0 -97 17t-72.5 47.5t-45.5 73t-16 93.5v339q0 14 10 24t24 10t23.5 -10t9.5 -24v-339q0 -74 45 -118.5t119 -44.5q27 0 50 6.5t42 17.5q7 5 18 5q14 0 24.5 -10.5t10.5 -24.5zM554 26q0 -14 -10 -24t-24 -10
t-24.5 10t-10.5 24v527q0 14 10.5 24t24.5 10t24 -10t10 -24v-527z" />
    <glyph glyph-name="v" unicode="v" horiz-adv-x="584" 
d="M323 11q-11 -20 -31 -20t-31 20l-246 528q-6 13 -1.5 26t17.5 19t26.5 1.5t19.5 -17.5l215 -468l215 468q6 13 19.5 17.5t26.5 -1.5t17.5 -19t-1.5 -26l-246 -528v0z" />
    <glyph glyph-name="w" unicode="w" horiz-adv-x="803" 
d="M611 15q-2 -10 -11.5 -16.5t-21.5 -6.5q-11 0 -20.5 6.5t-12.5 16.5l-143 425l-143 -425q-4 -10 -13 -16.5t-21 -6.5t-21 6.5t-13 16.5l-177 525q-6 17 5 32t29 15q12 0 21 -7t13 -18l143 -428l143 428q4 11 13 18t21 7q11 0 20.5 -7t13.5 -18l142 -428l143 428
q4 11 13.5 18t20.5 7q18 0 28.5 -15t4.5 -32z" />
    <glyph glyph-name="x" unicode="x" horiz-adv-x="544" 
d="M81 5q-10 -13 -27 -13q-12 0 -20.5 6t-12 14.5t-2 18.5t8.5 19l435 523q5 5 12.5 9.5t15.5 4.5q12 0 20 -6t12 -14.5t2.5 -18.5t-8.5 -19zM54 587q18 0 27 -14l146 -176q7 -9 8 -19t-2.5 -18.5t-11.5 -14t-20 -5.5q-17 0 -27 13l-146 176q-7 9 -8 19t3 18.5t12 14.5t19 6
zM344 239q18 0 27 -14l146 -176q7 -9 8 -19t-2.5 -18.5t-11.5 -14t-20 -5.5q-17 0 -27 13l-146 176q-7 9 -8 19t3 18.5t12 14.5t19 6z" />
    <glyph glyph-name="y" unicode="y" horiz-adv-x="584" 
d="M199 -176q-13 6 -17.5 19t1.5 26l324 699q6 13 19.5 17.5t26.5 -1.5t17.5 -19t-1.5 -26l-324 -699q-6 -13 -19.5 -17.5t-26.5 1.5zM245 125q-13 -6 -26.5 -1.5t-19.5 17.5l-184 398q-6 13 -1.5 26t17.5 19t26.5 1.5t19.5 -17.5l184 -398q6 -13 1.5 -26t-17.5 -19z" />
    <glyph glyph-name="z" unicode="z" horiz-adv-x="526" 
d="M502 545q0 -12 -8 -22l-362 -454h335q14 0 24.5 -10.5t10.5 -24.5t-10.5 -24t-24.5 -10h-408q-14 0 -24.5 10t-10.5 24q0 12 8 22l362 454h-335q-14 0 -24.5 10.5t-10.5 24.5t10.5 24t24.5 10h408q14 0 24.5 -10t10.5 -24z" />
    <glyph glyph-name="braceleft" unicode="{" horiz-adv-x="332" 
d="M64 289q0 14 9.5 24t23.5 10q22 0 37 15t15 37v255q0 25 9 46.5t25 38t38 26t47 9.5h8q14 0 24 -10t10 -24t-10 -24t-24 -10h-8q-21 0 -36 -15t-15 -37v-255q0 -31 -16.5 -52.5t-34.5 -32.5q18 -11 34.5 -33t16.5 -53v-254q0 -22 15 -37t36 -15h8q14 0 24 -10t10 -24
t-10 -24.5t-24 -10.5h-8q-25 0 -47 9.5t-38 26t-25 38.5t-9 47v254q0 22 -15 37t-37 15q-14 0 -23.5 9.5t-9.5 23.5z" />
    <glyph glyph-name="bar" unicode="|" horiz-adv-x="296" 
d="M120 730q0 11 8.5 19.5t19.5 8.5t19.5 -8.5t8.5 -19.5v-881q0 -11 -8.5 -19.5t-19.5 -8.5t-19.5 8.5t-8.5 19.5v881z" />
    <glyph glyph-name="braceright" unicode="}" horiz-adv-x="332" 
d="M268 289q0 -14 -9.5 -23.5t-23.5 -9.5q-22 0 -37 -15t-15 -37v-254q0 -25 -9 -47t-25 -38.5t-38 -26t-47 -9.5h-8q-14 0 -24 10.5t-10 24.5t10 24t24 10h8q21 0 36 15t15 37v254q0 31 16.5 53t34.5 33q-18 11 -34.5 32.5t-16.5 52.5v255q0 22 -15 37t-36 15h-8
q-14 0 -24 10t-10 24t10 24t24 10h8q25 0 47 -9.5t38 -26t25 -38t9 -46.5v-255q0 -22 15 -37t37 -15q14 0 23.5 -10t9.5 -24z" />
    <glyph glyph-name="asciitilde" unicode="~" horiz-adv-x="469" 
d="M60 252q0 22 8.5 42t23 34.5t34 23t42.5 8.5q30 0 55 -15t39 -41q6 -10 16.5 -16.5t23.5 -6.5q19 0 32 13.5t13 33.5q0 14 9 23t22 9t22 -9t9 -23q-1 -23 -9.5 -43t-23 -34.5t-34 -22.5t-40.5 -8q-31 0 -55.5 15.5t-38.5 39.5q-7 11 -17 17.5t-23 6.5q-19 0 -32 -12.5
t-15 -34.5q0 -14 -9 -23t-22 -9t-21.5 9t-8.5 23z" />
    <glyph glyph-name="uni00A0" unicode="&#xa0;" horiz-adv-x="500" 
 />
    <glyph glyph-name="exclamdown" unicode="&#xa1;" horiz-adv-x="188" 
d="M70 563q0 10 7 17t17 7t17 -7t7 -17l10 -537q0 -14 -10 -24t-24 -10t-24 10t-10 24zM43 708q0 20 15 35t37 15q20 0 35 -15t15 -35q0 -22 -15 -37t-35 -15q-22 0 -37 15t-15 37z" />
    <glyph glyph-name="cent" unicode="&#xa2;" horiz-adv-x="609" 
d="M203 19q-37 19 -67 47.5t-51.5 63.5t-33 75.5t-11.5 84.5t11.5 84.5t33 75.5t51.5 63.5t67 47.5q6 3 15 3q14 0 24.5 -10t10.5 -24q0 -20 -17 -30q-57 -30 -92 -85.5t-35 -124.5t35 -124.5t92 -85.5q17 -10 17 -30q0 -14 -10.5 -24t-24.5 -10q-9 0 -15 3zM296 18
q0 14 9.5 24t23.5 10h18q51 0 94.5 19t75.5 51q10 9 23.5 9t23.5 -10q11 -10 11 -24t-10 -23q-85 -84 -202 -90v-44q0 -14 -10 -24t-24 -10t-23.5 10t-9.5 24v78zM296 639q0 14 9.5 24t23.5 10t24 -10t10 -24v-43q57 -3 108.5 -25.5t93.5 -64.5q9 -10 9.5 -24t-9.5 -24
t-24 -9.5t-25 10.5q-34 33 -77 51t-92 19h-18q-14 0 -23.5 9.5t-9.5 23.5v77z" />
    <glyph glyph-name="sterling" unicode="&#xa3;" horiz-adv-x="565" 
d="M60 374q0 14 10 24.5t24 10.5h333q14 0 24 -10.5t10 -24.5t-10 -24t-24 -10h-298v-271h367q14 -1 24 -11t10 -24t-10 -24t-24 -10h-402q-14 0 -24 10t-10 24v340zM60 532q0 49 18.5 91.5t50.5 74.5t74.5 50.5t91.5 18.5t91.5 -18.5t74.5 -50.5t50.5 -74.5t18.5 -91.5
q0 -14 -10.5 -24t-24.5 -10t-24 10t-10 24q0 34 -13 64.5t-35.5 53t-53 35.5t-64.5 13q-35 0 -65 -13t-52.5 -35.5t-35.5 -53t-13 -64.5v-46q0 -14 -10.5 -24t-24.5 -10t-24 10t-10 24v46z" />
    <glyph glyph-name="currency" unicode="&#xa4;" horiz-adv-x="709" 
d="M354 -17q-54 0 -102.5 17.5t-88.5 48.5l-48 -48q-10 -11 -24 -10.5t-25 11.5q-10 10 -10 23.5t10 24.5l48 48q-32 39 -49.5 88t-17.5 104q0 54 17 102.5t49 87.5l-47 48q-10 11 -9.5 25t10.5 24q10 11 24 11t24 -11l47 -48q40 32 89 49.5t103 17.5t103 -17.5t89 -49.5
l48 48q10 11 24 11t24 -11q10 -10 10.5 -24t-9.5 -25l-48 -48q32 -39 49.5 -87.5t17.5 -102.5q0 -55 -18 -104t-50 -88l49 -48q10 -11 10 -24.5t-10 -23.5q-11 -11 -25 -11.5t-24 10.5l-49 48q-39 -31 -88 -48.5t-103 -17.5zM354 52q50 0 93.5 18.5t76 50.5t51.5 75.5
t19 93.5q0 49 -19 92.5t-51.5 76t-76 51t-93.5 18.5q-49 0 -92.5 -18.5t-75.5 -51t-51 -76t-19 -92.5q0 -50 19 -93.5t51 -75.5t75.5 -50.5t92.5 -18.5z" />
    <glyph glyph-name="yen" unicode="&#xa5;" horiz-adv-x="617" 
d="M543 461q0 -14 -9.5 -24t-23.5 -10h-107l-60 -84v-317q0 -14 -10 -24t-24 -10t-24 10t-10 24v327q0 13 7 21l263 370q10 14 28 14q10 0 18 -5.5t12 -13.5t4 -17.5t-6 -17.5l-150 -210h59q14 0 23.5 -9.5t9.5 -23.5zM74 460q0 14 9.5 24t23.5 10h60l-150 211
q-8 11 -5.5 25t13.5 22q12 8 26.5 6.5t22.5 -13.5l187 -263q8 -11 5.5 -25t-14.5 -23q-8 -7 -20 -7h-125q-14 0 -23.5 9.5t-9.5 23.5zM74 311q0 14 9.5 24t23.5 10h93q14 0 24 -10t10 -24t-10 -23.5t-24 -9.5h-93q-14 0 -23.5 9.5t-9.5 23.5zM386 311q0 14 9.5 24t23.5 10
h90q14 0 24 -10t10 -24t-10 -23.5t-24 -9.5h-90q-14 0 -23.5 9.5t-9.5 23.5z" />
    <glyph glyph-name="brokenbar" unicode="&#xa6;" 
d="M95 333q-14 0 -24.5 9.5t-10.5 23.5v239q0 14 10.5 24t24.5 10t24 -10t10 -24v-239q0 -14 -10 -23.5t-24 -9.5zM95 -58q-14 0 -24.5 9.5t-10.5 23.5v239q0 14 10.5 24t24.5 10t24 -10t10 -24v-239q0 -14 -10 -23.5t-24 -9.5z" />
    <glyph glyph-name="section" unicode="&#xa7;" horiz-adv-x="525" 
d="M263 177q44 0 83 -13t67.5 -36.5t45 -57t16.5 -74.5q0 -38 -16.5 -71t-45.5 -58t-67.5 -39.5t-82.5 -14.5q-38 0 -71.5 10.5t-60.5 29t-46.5 43.5t-28.5 55q-4 14 5 27.5t28 13.5q23 0 31 -21q16 -40 52.5 -64.5t90.5 -24.5q30 0 56 9t45.5 24.5t31 36t11.5 44.5
q0 27 -11 48t-30.5 35.5t-46 22t-56.5 7.5q-44 0 -83 13t-68 36.5t-45.5 57t-16.5 74.5q0 58 33 102q10 14 28 14q14 0 24 -10t10 -24q0 -7 -2.5 -12.5t-5.5 -10.5q-8 -13 -13.5 -27.5t-5.5 -31.5q0 -27 11.5 -48t31 -35.5t46 -22t56.5 -7.5zM262 403q-44 0 -83 13
t-67.5 36.5t-45 57t-16.5 74.5q0 37 16.5 70.5t45.5 58.5t67.5 39.5t82.5 14.5q37 0 71 -10.5t61 -29t46.5 -43.5t28.5 -55q4 -14 -5 -27.5t-28 -13.5q-23 0 -31 21q-16 40 -52.5 64.5t-90.5 24.5q-30 0 -56 -9t-45.5 -24.5t-31 -36t-11.5 -44.5q0 -27 11 -48t30.5 -35.5
t46 -22t56.5 -7.5q44 0 83 -13t68 -36.5t45.5 -57t16.5 -74.5q0 -58 -33 -102q-5 -6 -12 -10t-16 -4q-14 0 -24 10t-10 24q0 7 2.5 12.5t5.5 10.5q8 13 13.5 27.5t5.5 31.5q0 27 -11.5 48t-31 35.5t-46 22t-56.5 7.5z" />
    <glyph glyph-name="dieresis" unicode="&#xa8;" horiz-adv-x="316" 
d="M104 723q0 -19 -13 -32t-31 -13t-31.5 13t-13.5 32q0 18 13.5 31t31.5 13t31 -13t13 -31zM301 723q0 -19 -12.5 -32t-30.5 -13q-19 0 -32 13t-13 32q0 18 13 31t32 13q18 0 30.5 -13t12.5 -31z" />
    <glyph glyph-name="copyright" unicode="&#xa9;" horiz-adv-x="693" 
d="M617 290q0 56 -21 105t-58 86t-86 58t-106 21q-56 0 -105 -21t-86 -58t-58 -86t-21 -105t21 -105.5t58 -86t86 -58t105 -21.5q57 0 106 21.5t86 58t58 86t21 105.5zM653 290q0 -64 -24 -120t-65.5 -97.5t-97.5 -65.5t-120 -24q-63 0 -119 24t-97.5 65.5t-65.5 97.5
t-24 120q0 63 24 119t65.5 97.5t97.5 65.5t119 24q64 0 120 -24t97.5 -65.5t65.5 -97.5t24 -119zM455 182q6 6 15 6t15 -6q7 -6 7 -15.5t-6 -14.5q-29 -28 -64 -43t-76 -15t-76.5 15.5t-62 42t-42 62t-15.5 76.5t15.5 76.5t42 62t62 42t76.5 15.5q80 0 140 -58q6 -6 6 -15
t-6 -15q-6 -7 -15.5 -6.5t-16.5 6.5q-43 43 -108 45q-32 0 -59.5 -12.5t-48 -33t-32.5 -48t-12 -58.5q0 -32 12 -60t32.5 -48.5t48 -32.5t59.5 -12t60.5 12t48.5 32z" />
    <glyph glyph-name="ordfeminine" unicode="&#xaa;" horiz-adv-x="397" 
d="M194 495q37 0 66 19q6 4 11 4q8 0 12.5 -5t4.5 -12q0 -11 -10 -16q-38 -25 -84 -25q-32 0 -60 12t-49 33t-33 49t-12 60q0 31 12 59t33 49t49 33t60 12q44 0 73 -20.5t46 -46.5v45q0 17 17 17q7 0 12 -4.5t5 -12.5v-263q0 -8 -5 -12.5t-12 -4.5q-15 0 -17 15v134
q0 25 -9.5 46.5t-25.5 37.5t-38 25.5t-46 9.5q-25 0 -46.5 -9.5t-38 -25.5t-26 -37.5t-9.5 -46.5t9.5 -47t26 -38t38 -25t46.5 -9z" />
    <glyph glyph-name="guillemotleft" unicode="&#xab;" horiz-adv-x="431" 
d="M32 290q0 9 3.5 16t17 20.5t41.5 37.5t76 67q9 8 19 9t19 -3.5t15 -13t6 -19.5q0 -9 -5 -16t-10 -13l-99 -85l99 -86q5 -5 10 -12.5t5 -15.5q0 -11 -6 -19.5t-15 -13t-19 -3.5t-19 9q-48 43 -76 67t-41.5 37.5t-17 20.5t-3.5 16zM202 290q0 9 3.5 16t17 20.5t41.5 37.5
t76 67q9 8 19 9t19 -3.5t15 -13t6 -19.5q0 -9 -5 -16t-10 -13l-99 -85l99 -86q5 -5 10 -12.5t5 -15.5q0 -11 -6 -19.5t-15 -13t-19 -3.5t-19 9q-48 43 -76 67t-41.5 37.5t-17 20.5t-3.5 16z" />
    <glyph glyph-name="logicalnot" unicode="&#xac;" horiz-adv-x="445" 
d="M351 323q14 0 24 -10t10 -24v-75q0 -14 -10.5 -24t-24.5 -10t-24 10t-10 24v42h-230q-14 0 -24 9.5t-10 23.5t10 24t24 10h265z" />
    <glyph glyph-name="registered" unicode="&#xae;" horiz-adv-x="319" 
d="M279 648q0 -25 -9.5 -46.5t-25.5 -38t-38 -26t-46 -9.5q-25 0 -46.5 9.5t-38 26t-26 38t-9.5 46.5q0 24 9.5 46t26 38t38 25.5t46.5 9.5q24 0 46 -9.5t38 -25.5t25.5 -38t9.5 -46zM265 648q0 22 -8.5 41t-22.5 33t-33 22t-41 8t-41.5 -8t-33.5 -22t-22.5 -33t-8.5 -41
q0 -45 30.5 -75.5t75.5 -30.5q22 0 41 8.5t33 22.5t22.5 33.5t8.5 41.5zM224 678q0 -17 -9 -29.5t-24 -17.5l30 -59l-15 -1l-29 58h-58v-57h-14v154h69q21 0 35.5 -14t14.5 -34zM209 678q0 14 -10 24.5t-25 10.5h-55v-71h55q15 0 25 10t10 26z" />
    <glyph glyph-name="macron" unicode="&#xaf;" horiz-adv-x="307" 
d="M52 716q0 14 10 24t24 10h135q14 0 24 -10t10 -24t-10 -24t-24 -10h-135q-14 0 -24 10t-10 24z" />
    <glyph glyph-name="degree" unicode="&#xb0;" horiz-adv-x="304" 
d="M204 665q0 21 -15 35.5t-37 14.5q-21 0 -35.5 -14.5t-14.5 -35.5q0 -22 14.5 -37t35.5 -15q22 0 37 15t15 37zM254 665q0 -21 -8 -39.5t-22 -32.5t-32.5 -22t-39.5 -8t-39.5 8t-32.5 22t-22 32.5t-8 39.5t8 39.5t22 32.5t32.5 22t39.5 8t39.5 -8t32.5 -22t22 -32.5
t8 -39.5z" />
    <glyph glyph-name="plusminus" unicode="&#xb1;" horiz-adv-x="679" 
d="M306 340h-231q-14 0 -23.5 10t-9.5 24t9.5 24.5t23.5 10.5h231v144q0 14 10 24t24 10t24 -10t10 -24v-144h229q14 0 24 -10.5t10 -24.5t-10 -24t-24 -10h-229v-143q0 -14 -10 -24t-24 -10t-24 10t-10 24v143zM42 34q0 14 10 24.5t24 10.5h527q14 0 24 -10.5t10 -24.5
t-10 -24t-24 -10h-527q-14 0 -24 10t-10 24z" />
    <glyph glyph-name="uni00B2" unicode="&#xb2;" horiz-adv-x="335" 
d="M49 392q0 7 6 13l173 159q15 13 24.5 31.5t9.5 39.5q0 19 -7.5 35.5t-20.5 28.5t-30 18.5t-36 6.5t-36 -7t-30 -20t-20.5 -30t-7.5 -37q0 -7 -5 -12t-12 -5q-8 0 -12.5 5t-4.5 12q0 27 10 50t27.5 40.5t40.5 27.5t50 10q26 0 49 -9t40.5 -25.5t27.5 -39t10 -49.5
q0 -29 -12 -54.5t-33 -43.5l-138 -128h155q7 0 12 -5t5 -12q0 -8 -5 -12.5t-12 -4.5h-201q-7 0 -12 4.5t-5 12.5z" />
    <glyph glyph-name="uni00B3" unicode="&#xb3;" horiz-adv-x="335" 
d="M180 600q0 17 17 17q4 0 7 -1q39 -12 64.5 -45.5t25.5 -76.5q0 -26 -10 -49.5t-27.5 -40.5t-40.5 -27t-50 -10q-24 0 -45.5 8t-38 22.5t-28 33.5t-14.5 42q-2 10 3.5 16t12.5 6t12 -5t6 -11q5 -34 31 -56t61 -22q39 0 66.5 27t27.5 66q0 32 -19.5 57t-48.5 33
q-12 3 -12 16zM100 561q-5 -5 -12 -5t-12 4.5t-5 12.5q0 9 7 14l136 129h-133q-7 0 -12 5t-5 12q0 8 5 12.5t12 4.5h175q7 0 12 -4.5t5 -12.5q0 -7 -6 -13z" />
    <glyph glyph-name="acute" unicode="&#xb4;" horiz-adv-x="351" 
d="M87 684q-3 8 0.5 14.5t10.5 10.5l124 59q13 5 25.5 -0.5t16.5 -18.5q5 -13 -0.5 -25.5t-19.5 -16.5l-133 -34q-17 -5 -24 11z" />
    <glyph glyph-name="mu" unicode="&#xb5;" horiz-adv-x="615" 
d="M444 45q0 -20 -17 -30q-26 -15 -56 -23.5t-68 -8.5q-54 0 -97 20.5t-77 56.5v-204q0 -14 -10.5 -24.5t-24.5 -10.5t-24 10.5t-10 24.5v696q0 14 10 24.5t24 10.5t24.5 -10.5t10.5 -24.5v-322q0 -37 13.5 -69.5t37 -57t55 -38.5t68.5 -14q27 0 48 6.5t40 17.5q7 5 18 5
q14 0 24.5 -10.5t10.5 -24.5zM520 -8q-14 0 -23 8.5t-11 21.5v530q0 14 10 24.5t24 10.5t24 -10t11 -24v-527q0 -14 -10.5 -24t-24.5 -10z" />
    <glyph glyph-name="mu" unicode="&#x3bc;" horiz-adv-x="615" 
d="M444 45q0 -20 -17 -30q-26 -15 -56 -23.5t-68 -8.5q-54 0 -97 20.5t-77 56.5v-204q0 -14 -10.5 -24.5t-24.5 -10.5t-24 10.5t-10 24.5v696q0 14 10 24.5t24 10.5t24.5 -10.5t10.5 -24.5v-322q0 -37 13.5 -69.5t37 -57t55 -38.5t68.5 -14q27 0 48 6.5t40 17.5q7 5 18 5
q14 0 24.5 -10.5t10.5 -24.5zM520 -8q-14 0 -23 8.5t-11 21.5v530q0 14 10 24.5t24 10.5t24 -10t11 -24v-527q0 -14 -10.5 -24t-24.5 -10z" />
    <glyph glyph-name="paragraph" unicode="&#xb6;" horiz-adv-x="596" 
d="M298 716q0 14 10 24t24 10h170q14 0 24 -10t10 -24v-690q0 -14 -10 -24t-24 -10t-23.5 10t-9.5 24v656h-103v-656q0 -14 -10 -24t-24 -10t-24 10t-10 24v690zM94 563q0 -25 9 -47t25 -38t38 -25t47 -9h8q14 0 24 -10.5t10 -24.5t-10 -24t-24 -10h-8q-39 0 -73.5 14.5
t-60 40t-40 60t-14.5 73.5t14.5 73t40 59.5t60 40t73.5 14.5h8q14 0 24 -10t10 -24t-10 -24t-24 -10h-8q-25 0 -47 -9.5t-38 -25.5t-25 -37.5t-9 -46.5z" />
    <glyph glyph-name="periodcentered" unicode="&#xb7;" horiz-adv-x="222" 
d="M87 239q-22 0 -37 15t-15 36t15 36t37 15q20 0 35 -15t15 -36t-15 -36t-35 -15z" />
    <glyph glyph-name="cedilla" unicode="&#xb8;" horiz-adv-x="325" 
d="M148 23l26 -7l-22 -70q20 2 37 -7t27 -26q13 -23 6 -50t-31 -40q-23 -14 -48.5 -7.5t-41.5 29.5q-5 6 -3.5 11.5t6 8.5t10.5 2t10 -7q8 -14 24 -18t30 4t18 23.5t-4 30.5q-8 14 -23 18.5t-29 -2.5q-6 -5 -14 -2t-6 13z" />
    <glyph glyph-name="uni00B9" unicode="&#xb9;" horiz-adv-x="226" 
d="M131 710l-55 -32q-5 -3 -9 -3q-17 0 -17 17q0 11 10 16l78 47q4 3 11 3t12 -4.5t5 -12.5v-349q0 -7 -5 -12t-13 -5q-7 0 -12 5t-5 12v318z" />
    <glyph glyph-name="ordmasculine" unicode="&#xba;" horiz-adv-x="387" 
d="M193 495q25 0 47 9t38 25t25.5 38t9.5 47t-9.5 46.5t-25.5 37.5t-38 25.5t-47 9.5q-24 0 -46 -9.5t-38 -25.5t-25.5 -37.5t-9.5 -46.5t9.5 -47t25.5 -38t38 -25t46 -9zM193 460q-32 0 -59.5 12t-48.5 33t-33 49t-12 60q0 31 12 59t33 49t48.5 33t59.5 12t60 -12t49 -33
t33 -49t12 -59q0 -32 -12 -60t-33 -49t-49 -33t-60 -12z" />
    <glyph glyph-name="guillemotright" unicode="&#xbb;" horiz-adv-x="431" 
d="M399 290q0 -9 -3.5 -16t-17 -20.5t-41.5 -37.5t-76 -67q-9 -8 -19 -9t-19 3.5t-15 13t-6 19.5q0 8 5 15.5t10 12.5l99 86l-99 85q-5 6 -10 13t-5 16q0 11 6 19.5t15 13t19 3.5t19 -9q48 -43 76 -67t41.5 -37.5t17 -20.5t3.5 -16zM229 290q0 -9 -3.5 -16t-17 -20.5
t-41.5 -37.5t-76 -67q-9 -8 -19 -9t-19 3.5t-15 13t-6 19.5q0 8 5 15.5t10 12.5l99 86l-99 85q-5 6 -10 13t-5 16q0 11 6 19.5t15 13t19 3.5t19 -9q48 -43 76 -67t41.5 -37.5t17 -20.5t3.5 -16z" />
    <glyph glyph-name="onequarter" unicode="&#xbc;" horiz-adv-x="665" 
d="M131 710l-55 -32q-5 -3 -9 -3q-17 0 -17 17q0 11 10 16l78 47q4 3 11 3t12 -4.5t5 -12.5v-349q0 -7 -5 -12t-13 -5q-7 0 -12 5t-5 12v318zM456 749q3 6 9.5 8t11.5 0q6 -2 8.5 -8t-0.5 -12l-304 -736q-3 -5 -9 -8t-11 -1q-6 2 -9 8.5t0 12.5zM551 302l-140 -187h217
q7 0 12 -4.5t5 -12.5q0 -7 -5 -11.5t-12 -4.5h-43v-73q0 -7 -5 -12t-12 -5q-8 0 -12.5 5t-4.5 12v73h-172q-7 0 -12 4.5t-5 12.5q0 6 5 11l186 258q5 7 15 7q7 0 12 -4.5t5 -12.5v-196q0 -8 -5 -12.5t-12 -4.5q-17 0 -17 17v140z" />
    <glyph glyph-name="onehalf" unicode="&#xbd;" horiz-adv-x="716" 
d="M131 710l-55 -32q-5 -3 -9 -3q-17 0 -17 17q0 11 10 16l78 47q4 3 11 3t12 -4.5t5 -12.5v-349q0 -7 -5 -12t-13 -5q-7 0 -12 5t-5 12v318zM456 749q3 6 9.5 8t11.5 0q6 -2 8.5 -8t-0.5 -12l-304 -736q-3 -5 -9 -8t-11 -1q-6 2 -9 8.5t0 12.5zM430 17q0 7 6 13l173 159
q15 13 24.5 31.5t9.5 39.5q0 19 -7.5 35.5t-20.5 28.5t-30 18.5t-36 6.5t-36 -7t-30 -20t-20.5 -30t-7.5 -37q0 -7 -5 -12t-12 -5q-8 0 -12.5 5t-4.5 12q0 27 10 50t27.5 40.5t40.5 27.5t50 10q26 0 49 -9t40.5 -25.5t27.5 -39t10 -49.5q0 -29 -12 -54.5t-33 -43.5
l-138 -128h155q7 0 12 -5t5 -12q0 -8 -5 -12.5t-12 -4.5h-201q-7 0 -12 4.5t-5 12.5z" />
    <glyph glyph-name="threequarters" unicode="&#xbe;" horiz-adv-x="746" 
d="M536 749q3 6 9.5 8t11.5 0q6 -2 8.5 -8t-0.5 -12l-304 -736q-3 -5 -9 -8t-11 -1q-6 2 -9 8.5t0 12.5zM631 302l-140 -187h217q7 0 12 -4.5t5 -12.5q0 -7 -5 -11.5t-12 -4.5h-43v-73q0 -7 -5 -12t-12 -5q-8 0 -12.5 5t-4.5 12v73h-172q-7 0 -12 4.5t-5 12.5q0 6 5 11
l186 258q5 7 15 7q7 0 12 -4.5t5 -12.5v-196q0 -8 -5 -12.5t-12 -4.5q-17 0 -17 17v140zM180 600q0 17 17 17q4 0 7 -1q39 -12 64.5 -45.5t25.5 -76.5q0 -26 -10 -49.5t-27.5 -40.5t-40.5 -27t-50 -10q-24 0 -45.5 8t-38 22.5t-28 33.5t-14.5 42q-2 10 3.5 16t12.5 6t12 -5
t6 -11q5 -34 31 -56t61 -22q39 0 66.5 27t27.5 66q0 32 -19.5 57t-48.5 33q-12 3 -12 16zM100 561q-5 -5 -12 -5t-12 4.5t-5 12.5q0 9 7 14l136 129h-133q-7 0 -12 5t-5 12q0 8 5 12.5t12 4.5h175q7 0 12 -4.5t5 -12.5q0 -7 -6 -13z" />
    <glyph glyph-name="questiondown" unicode="&#xbf;" horiz-adv-x="587" 
d="M329 459q0 -14 -10 -24t-24 -10q-39 0 -73 -14.5t-59.5 -40t-40.5 -60t-15 -73.5t15 -72.5t40.5 -59t59.5 -40t73 -14.5q35 0 66 12t55.5 33t41 49.5t22.5 61.5q2 13 11.5 22.5t23.5 9.5t25.5 -11.5t7.5 -31.5q-8 -45 -30 -84t-56 -67.5t-76.5 -45t-90.5 -16.5
q-53 0 -99.5 20t-81 54.5t-54.5 80.5t-20 99q0 49 17 92.5t46.5 77t69.5 56t87 28.5v54q0 14 10.5 24t24.5 10t24 -10t10 -24v-86zM245 707q0 21 15 36t35 15q22 0 37 -15t15 -36q0 -22 -15 -37t-37 -15q-20 0 -35 15t-15 37z" />
    <glyph glyph-name="Agrave" unicode="&#xc0;" horiz-adv-x="690" 
d="M433 797q-7 -16 -24 -11l-133 34q-14 4 -19.5 16.5t-0.5 25.5q4 13 16.5 18.5t25.5 0.5l124 -59q7 -4 10.5 -10.5t0.5 -14.5zM345 637l-259 -625q-9 -20 -32 -20q-15 0 -24.5 9.5t-9.5 23.5q0 8 3 14l291 699q8 20 31 20t31 -20l167 -402q3 -6 3 -14q0 -14 -9.5 -23.5
t-24.5 -9.5q-23 0 -32 20zM561 238q10 0 18 -6t13 -15l75 -178q3 -6 3 -14q0 -14 -9.5 -23.5t-24.5 -9.5q-23 0 -32 20l-63 157h-284q-14 0 -24 10t-10 24t10 24.5t24 10.5h304z" />
    <glyph glyph-name="Aacute" unicode="&#xc1;" horiz-adv-x="690" 
d="M254 797q-3 8 0.5 14.5t10.5 10.5l124 59q13 5 25.5 -0.5t16.5 -18.5q5 -13 -0.5 -25.5t-19.5 -16.5l-133 -34q-17 -5 -24 11zM345 637l-259 -625q-9 -20 -32 -20q-15 0 -24.5 9.5t-9.5 23.5q0 8 3 14l291 699q8 20 31 20t31 -20l167 -402q3 -6 3 -14q0 -14 -9.5 -23.5
t-24.5 -9.5q-23 0 -32 20zM561 238q10 0 18 -6t13 -15l75 -178q3 -6 3 -14q0 -14 -9.5 -23.5t-24.5 -9.5q-23 0 -32 20l-63 157h-284q-14 0 -24 10t-10 24t10 24.5t24 10.5h304z" />
    <glyph glyph-name="Acircumflex" unicode="&#xc2;" horiz-adv-x="690" 
d="M345 918q6 0 10.5 -2.5t13.5 -11.5t25 -27.5t45 -50.5q10 -11 3.5 -25t-21.5 -14q-6 0 -10.5 3t-8.5 7l-57 59l-57 -59q-4 -4 -9 -7t-10 -3q-7 0 -12.5 4t-8.5 10t-2.5 12.5t5.5 12.5q28 32 44 50.5t25 27.5t14 11.5t11 2.5zM345 637l-259 -625q-9 -20 -32 -20
q-15 0 -24.5 9.5t-9.5 23.5q0 8 3 14l291 699q8 20 31 20t31 -20l167 -402q3 -6 3 -14q0 -14 -9.5 -23.5t-24.5 -9.5q-23 0 -32 20zM561 238q10 0 18 -6t13 -15l75 -178q3 -6 3 -14q0 -14 -9.5 -23.5t-24.5 -9.5q-23 0 -32 20l-63 157h-284q-14 0 -24 10t-10 24t10 24.5
t24 10.5h304z" />
    <glyph glyph-name="Atilde" unicode="&#xc3;" horiz-adv-x="690" 
d="M232 809q1 30 21 50.5t49 20.5q20 0 35.5 -10.5t25.5 -25.5q5 -6 11.5 -11.5t14.5 -5.5q12 0 20.5 9t8.5 22q0 8 6 14t14 6t14 -6t6 -14q-1 -30 -21 -50.5t-48 -20.5q-20 0 -35 10.5t-25 25.5q-6 7 -12 12.5t-15 5.5q-13 0 -21.5 -9.5t-8.5 -22.5q0 -8 -6 -14t-14 -6
t-14 6t-6 14zM345 637l-259 -625q-9 -20 -32 -20q-15 0 -24.5 9.5t-9.5 23.5q0 8 3 14l291 699q8 20 31 20t31 -20l167 -402q3 -6 3 -14q0 -14 -9.5 -23.5t-24.5 -9.5q-23 0 -32 20zM561 238q10 0 18 -6t13 -15l75 -178q3 -6 3 -14q0 -14 -9.5 -23.5t-24.5 -9.5
q-23 0 -32 20l-63 157h-284q-14 0 -24 10t-10 24t10 24.5t24 10.5h304z" />
    <glyph glyph-name="Adieresis" unicode="&#xc4;" horiz-adv-x="690" 
d="M290 836q0 -19 -13 -32t-31 -13t-31.5 13t-13.5 32q0 18 13.5 31t31.5 13t31 -13t13 -31zM487 836q0 -19 -12.5 -32t-30.5 -13q-19 0 -32 13t-13 32q0 18 13 31t32 13q18 0 30.5 -13t12.5 -31zM345 637l-259 -625q-9 -20 -32 -20q-15 0 -24.5 9.5t-9.5 23.5q0 8 3 14
l291 699q8 20 31 20t31 -20l167 -402q3 -6 3 -14q0 -14 -9.5 -23.5t-24.5 -9.5q-23 0 -32 20zM561 238q10 0 18 -6t13 -15l75 -178q3 -6 3 -14q0 -14 -9.5 -23.5t-24.5 -9.5q-23 0 -32 20l-63 157h-284q-14 0 -24 10t-10 24t10 24.5t24 10.5h304z" />
    <glyph glyph-name="Aring" unicode="&#xc5;" horiz-adv-x="690" 
d="M375 851q0 13 -8.5 21.5t-21.5 8.5q-14 0 -22.5 -8.5t-8.5 -21.5q0 -14 8.5 -22.5t22.5 -8.5q13 0 21.5 8.5t8.5 22.5zM419 851q0 -31 -22 -53t-52 -22t-52 22t-22 53q0 30 22 51.5t52 21.5t52 -21.5t22 -51.5zM345 637l-259 -625q-9 -20 -32 -20q-15 0 -24.5 9.5
t-9.5 23.5q0 8 3 14l291 699q8 20 31 20t31 -20l167 -402q3 -6 3 -14q0 -14 -9.5 -23.5t-24.5 -9.5q-23 0 -32 20zM561 238q10 0 18 -6t13 -15l75 -178q3 -6 3 -14q0 -14 -9.5 -23.5t-24.5 -9.5q-23 0 -32 20l-63 157h-284q-14 0 -24 10t-10 24t10 24.5t24 10.5h304z" />
    <glyph glyph-name="AE" unicode="&#xc6;" horiz-adv-x="1112" 
d="M527 374q0 14 10 24.5t24 10.5h409q14 0 24 -10.5t10 -24.5t-10 -24t-24 -10h-374v-271h443q14 -1 24 -11t10 -24t-10 -24t-24 -10h-478q-14 0 -24 10t-10 24v340zM229 315q0 13 8 23l295 396q5 7 12 11.5t17 4.5h478q14 0 24 -10t10 -24t-10 -24t-24 -10h-459l-286 -383
q-11 -18 -31 -18q-14 0 -24 10t-10 24zM154 224q10 14 27 14h269q14 0 24 -10t10 -24t-10 -23.5t-24 -9.5h-250l-122 -165q-8 -12 -22.5 -13.5t-25.5 6.5t-13.5 22t5.5 25z" />
    <glyph glyph-name="Ccedilla" unicode="&#xc7;" horiz-adv-x="747" 
d="M402 -16q-77 4 -144 36.5t-117 85t-78.5 121.5t-28.5 147q0 81 31 152.5t84 125t124.5 84t152.5 30.5q81 1 152.5 -30.5t125.5 -85.5q10 -10 10.5 -24t-9.5 -24q-11 -10 -24.5 -10t-23.5 10q-48 46 -106 71t-124 25q-68 0 -127 -25.5t-102.5 -69.5t-68.5 -103t-25 -126
t25 -126t68.5 -102.5t102.5 -69t127 -25.5q67 0 126 25t104 68q10 9 24 9t24 -10t9.5 -23.5t-10.5 -23.5q-55 -54 -125 -83.5t-150 -29.5l-11 -37q20 2 37 -7t27 -26q13 -23 6 -50t-31 -40q-23 -14 -48.5 -7.5t-41.5 29.5q-5 6 -3.5 11.5t6 8.5t10.5 2t10 -7q8 -14 24 -18
t30 4t18 23.5t-4 30.5q-8 14 -23 18.5t-29 -2.5q-6 -5 -14 -2t-6 13z" />
    <glyph glyph-name="Egrave" unicode="&#xc8;" horiz-adv-x="641" 
d="M428 797q-7 -16 -24 -11l-133 34q-14 4 -19.5 16.5t-0.5 25.5q4 13 16.5 18.5t25.5 0.5l124 -59q7 -4 10.5 -10.5t0.5 -14.5zM60 374q0 14 10 24.5t24 10.5h409q14 0 24 -10.5t10 -24.5t-10 -24t-24 -10h-374v-271h443q14 -1 24 -11t10 -24t-10 -24t-24 -10h-478
q-14 0 -24 10t-10 24v340zM60 716q0 14 10 24t24 10h478q14 0 24 -10t10 -24t-10 -24t-24 -10h-443v-170q0 -14 -10.5 -24t-24.5 -10t-24 10t-10 24v204z" />
    <glyph glyph-name="Eacute" unicode="&#xc9;" horiz-adv-x="641" 
d="M249 797q-3 8 0.5 14.5t10.5 10.5l124 59q13 5 25.5 -0.5t16.5 -18.5q5 -13 -0.5 -25.5t-19.5 -16.5l-133 -34q-17 -5 -24 11zM60 374q0 14 10 24.5t24 10.5h409q14 0 24 -10.5t10 -24.5t-10 -24t-24 -10h-374v-271h443q14 -1 24 -11t10 -24t-10 -24t-24 -10h-478
q-14 0 -24 10t-10 24v340zM60 716q0 14 10 24t24 10h478q14 0 24 -10t10 -24t-10 -24t-24 -10h-443v-170q0 -14 -10.5 -24t-24.5 -10t-24 10t-10 24v204z" />
    <glyph glyph-name="Ecircumflex" unicode="&#xca;" horiz-adv-x="641" 
d="M333 918q6 0 10.5 -2.5t13.5 -11.5t25 -27.5t45 -50.5q10 -11 3.5 -25t-21.5 -14q-6 0 -10.5 3t-8.5 7l-57 59l-57 -59q-4 -4 -9 -7t-10 -3q-7 0 -12.5 4t-8.5 10t-2.5 12.5t5.5 12.5q28 32 44 50.5t25 27.5t14 11.5t11 2.5zM60 374q0 14 10 24.5t24 10.5h409
q14 0 24 -10.5t10 -24.5t-10 -24t-24 -10h-374v-271h443q14 -1 24 -11t10 -24t-10 -24t-24 -10h-478q-14 0 -24 10t-10 24v340zM60 716q0 14 10 24t24 10h478q14 0 24 -10t10 -24t-10 -24t-24 -10h-443v-170q0 -14 -10.5 -24t-24.5 -10t-24 10t-10 24v204z" />
    <glyph glyph-name="Edieresis" unicode="&#xcb;" horiz-adv-x="641" 
d="M266 836q0 -19 -13 -32t-31 -13t-31.5 13t-13.5 32q0 18 13.5 31t31.5 13t31 -13t13 -31zM463 836q0 -19 -12.5 -32t-30.5 -13q-19 0 -32 13t-13 32q0 18 13 31t32 13q18 0 30.5 -13t12.5 -31zM60 374q0 14 10 24.5t24 10.5h409q14 0 24 -10.5t10 -24.5t-10 -24t-24 -10
h-374v-271h443q14 -1 24 -11t10 -24t-10 -24t-24 -10h-478q-14 0 -24 10t-10 24v340zM60 716q0 14 10 24t24 10h478q14 0 24 -10t10 -24t-10 -24t-24 -10h-443v-170q0 -14 -10.5 -24t-24.5 -10t-24 10t-10 24v204z" />
    <glyph glyph-name="Igrave" unicode="&#xcc;" 
d="M129 0h-69v750h69v-750zM9 880l171 -59v-40l-171 42v57z" />
    <glyph glyph-name="Iacute" unicode="&#xcd;" 
d="M60 750h69v-750h-69v750zM180 823l-171 -42v40l171 59v-57z" />
    <glyph glyph-name="Icircumflex" unicode="&#xce;" 
d="M60 750h69v-750h-69v750zM195 790h-55l-45 56l-45 -56h-56l77 100h48z" />
    <glyph glyph-name="Idieresis" unicode="&#xcf;" 
d="M60 750h69v-750h-69v750zM40 836q0 -19 -13 -32t-31 -13t-31.5 13t-13.5 32q0 18 13.5 31t31.5 13t31 -13t13 -31zM237 836q0 -19 -12.5 -32t-30.5 -13q-19 0 -31.5 13t-12.5 32q0 18 12.5 31t31.5 13q18 0 30.5 -13t12.5 -31z" />
    <glyph glyph-name="Eth" unicode="&#xd0;" horiz-adv-x="745" 
d="M113 271q14 0 24 -10t10 -24v-168h188q64 0 120 24t97.5 65.5t65.5 97.5t24 119q0 64 -24 120t-65.5 97.5t-97.5 65.5t-120 24h-188v-169q0 -14 -10 -24t-24 -10t-24 10t-10 24v203q0 14 10 24t24 10h222q78 0 146 -29.5t119 -80.5t80.5 -119t29.5 -146t-29.5 -146
t-80.5 -119t-119 -80.5t-146 -29.5h-222q-14 0 -24 10t-10 24v203q0 14 10 24t24 10zM46 341q-14 0 -24 10t-10 24t10 24t24 10h239q14 0 23.5 -10t9.5 -24t-9.5 -24t-23.5 -10h-239z" />
    <glyph glyph-name="Ntilde" unicode="&#xd1;" horiz-adv-x="700" 
d="M605 758q14 0 24.5 -10t10.5 -24v-698q0 -14 -10.5 -24t-24.5 -10q-18 0 -28 15l-448 615v-596q0 -14 -10.5 -24t-24.5 -10t-24 10t-10 24v698q0 14 10 24t24 10q18 0 28 -13l449 -617v596q0 14 10 24t24 10zM237 789q1 30 21 50.5t49 20.5q20 0 35.5 -10.5t25.5 -25.5
q5 -6 11.5 -11.5t14.5 -5.5q12 0 20.5 9t8.5 22q0 8 6 14t14 6t14 -6t6 -14q-1 -30 -21 -50.5t-48 -20.5q-20 0 -35 10.5t-25 25.5q-6 7 -12 12.5t-15 5.5q-13 0 -21.5 -9.5t-8.5 -22.5q0 -8 -6 -14t-14 -6t-14 6t-6 14z" />
    <glyph glyph-name="Ograve" unicode="&#xd2;" horiz-adv-x="854" 
d="M104 375q0 -67 25.5 -126t69 -102.5t102.5 -69t126 -25.5t126 25.5t103 69t69.5 102.5t25.5 126t-25.5 126t-69.5 102.5t-103 69t-126 25.5t-126 -25.5t-102.5 -69t-69 -102.5t-25.5 -126zM35 375q0 81 31 152.5t84 124.5t124.5 84t152.5 31t152.5 -31t125 -84t84 -124.5
t30.5 -152.5t-30.5 -152.5t-84 -124.5t-125 -84t-152.5 -31t-152.5 31t-124.5 84t-84 124.5t-31 152.5zM515 797q-7 -16 -24 -11l-133 34q-14 4 -19.5 16.5t-0.5 25.5q4 13 16.5 18.5t25.5 0.5l124 -59q7 -4 10.5 -10.5t0.5 -14.5z" />
    <glyph glyph-name="Oacute" unicode="&#xd3;" horiz-adv-x="854" 
d="M750 375q0 67 -25.5 126t-69 102.5t-102.5 69t-126 25.5t-126 -25.5t-103 -69t-69.5 -102.5t-25.5 -126t25.5 -126t69.5 -102.5t103 -69t126 -25.5t126 25.5t102.5 69t69 102.5t25.5 126zM819 375q0 -81 -31 -152.5t-84 -124.5t-124.5 -84t-152.5 -31t-152.5 31t-125 84
t-84 124.5t-30.5 152.5t30.5 152.5t84 124.5t125 84t152.5 31t152.5 -31t124.5 -84t84 -124.5t31 -152.5zM336 797q-3 8 0.5 14.5t10.5 10.5l124 59q13 5 25.5 -0.5t16.5 -18.5q5 -13 -0.5 -25.5t-19.5 -16.5l-133 -34q-17 -5 -24 11z" />
    <glyph glyph-name="Ocircumflex" unicode="&#xd4;" horiz-adv-x="854" 
d="M750 375q0 67 -25.5 126t-69 102.5t-102.5 69t-126 25.5t-126 -25.5t-103 -69t-69.5 -102.5t-25.5 -126t25.5 -126t69.5 -102.5t103 -69t126 -25.5t126 25.5t102.5 69t69 102.5t25.5 126zM819 375q0 -81 -31 -152.5t-84 -124.5t-124.5 -84t-152.5 -31t-152.5 31t-125 84
t-84 124.5t-30.5 152.5t30.5 152.5t84 124.5t125 84t152.5 31t152.5 -31t124.5 -84t84 -124.5t31 -152.5zM427 918q6 0 10.5 -2.5t13.5 -11.5t25 -27.5t45 -50.5q10 -11 3.5 -25t-21.5 -14q-6 0 -10.5 3t-8.5 7l-57 59l-57 -59q-4 -4 -9 -7t-10 -3q-7 0 -12.5 4t-8.5 10
t-2.5 12.5t5.5 12.5q28 32 44 50.5t25 27.5t14 11.5t11 2.5z" />
    <glyph glyph-name="Otilde" unicode="&#xd5;" horiz-adv-x="854" 
d="M750 375q0 67 -25.5 126t-69 102.5t-102.5 69t-126 25.5t-126 -25.5t-103 -69t-69.5 -102.5t-25.5 -126t25.5 -126t69.5 -102.5t103 -69t126 -25.5t126 25.5t102.5 69t69 102.5t25.5 126zM819 375q0 -81 -31 -152.5t-84 -124.5t-124.5 -84t-152.5 -31t-152.5 31t-125 84
t-84 124.5t-30.5 152.5t30.5 152.5t84 124.5t125 84t152.5 31t152.5 -31t124.5 -84t84 -124.5t31 -152.5zM312 819q1 30 21 50.5t49 20.5q20 0 35.5 -10.5t25.5 -25.5q5 -6 11.5 -11.5t14.5 -5.5q12 0 20.5 9t8.5 22q0 8 6 14t14 6t14 -6t6 -14q-1 -30 -21 -50.5t-48 -20.5
q-20 0 -35 10.5t-25 25.5q-6 7 -12 12.5t-15 5.5q-13 0 -21.5 -9.5t-8.5 -22.5q0 -8 -6 -14t-14 -6t-14 6t-6 14z" />
    <glyph glyph-name="Odieresis" unicode="&#xd6;" horiz-adv-x="854" 
d="M750 375q0 67 -25.5 126t-69 102.5t-102.5 69t-126 25.5t-126 -25.5t-103 -69t-69.5 -102.5t-25.5 -126t25.5 -126t69.5 -102.5t103 -69t126 -25.5t126 25.5t102.5 69t69 102.5t25.5 126zM819 375q0 -81 -31 -152.5t-84 -124.5t-124.5 -84t-152.5 -31t-152.5 31t-125 84
t-84 124.5t-30.5 152.5t30.5 152.5t84 124.5t125 84t152.5 31t152.5 -31t124.5 -84t84 -124.5t31 -152.5zM371 836q0 -20 -13 -32.5t-31 -12.5t-31.5 12.5t-13.5 32.5q0 18 13.5 31t31.5 13t31 -13t13 -31zM569 836q0 -20 -13 -32.5t-31 -12.5q-19 0 -31.5 12.5t-12.5 32.5
q0 18 12.5 31t31.5 13q18 0 31 -13t13 -31z" />
    <glyph glyph-name="multiply" unicode="&#xd7;" horiz-adv-x="662" 
d="M380 288l239 -239q11 -10 11 -24t-11 -24q-10 -10 -24 -10.5t-25 9.5l-239 239l-240 -239q-10 -11 -24 -10.5t-25 11.5q-10 10 -10 23.5t10 24.5l240 239l-239 240q-11 10 -10.5 24t11.5 25q10 10 23.5 10t24.5 -10l239 -240l239 239q10 11 24 11t24 -11q10 -10 10.5 -24
t-9.5 -25z" />
    <glyph glyph-name="Oslash" unicode="&#xd8;" horiz-adv-x="864" 
d="M107 1q-11 -10 -25 -9.5t-24 10.5q-11 10 -11 24t11 24l698 699q11 10 24.5 10t23.5 -10q11 -11 11.5 -25t-10.5 -24zM432 699q-67 0 -126 -25.5t-103 -69.5t-69.5 -103t-25.5 -126q0 -39 8.5 -76t24.5 -69q2 -5 4 -9.5t2 -9.5q0 -14 -10 -24t-24 -10q-23 0 -31 20
q-20 40 -31 85t-11 93q0 81 30.5 152.5t84 124.5t125 84t152.5 31q48 0 93 -11t85 -31q20 -8 20 -31q0 -14 -10 -24t-24 -10q-5 0 -9.5 2t-9.5 4q-32 16 -69 24.5t-76 8.5zM432 51q67 0 126 25.5t103 69.5t69.5 103t25.5 126q0 39 -8.5 76t-24.5 69q-2 5 -4 9.5t-2 9.5
q0 14 10 24t24 10q23 0 31 -20q20 -40 31 -85t11 -93q0 -81 -30.5 -152.5t-84 -124.5t-125 -84t-152.5 -31q-48 0 -93 11t-85 31q-20 8 -20 31q0 14 10 24t24 10q5 0 9.5 -2t9.5 -4q32 -16 69 -24.5t76 -8.5z" />
    <glyph glyph-name="Ugrave" unicode="&#xd9;" horiz-adv-x="699" 
d="M571 724q0 14 10 24t24 10t24 -10t10 -24v-451q0 -60 -23 -113t-62 -92t-91.5 -62t-112.5 -23t-113 23t-92 62t-62 92t-23 113v451q0 14 10 24t24 10t24 -10t10 -24v-451q0 -46 17.5 -86.5t47.5 -70.5t70.5 -47t86.5 -17t86 17t70 47t47.5 70.5t17.5 86.5v451zM435 797
q-7 -16 -24 -11l-133 34q-14 4 -19.5 16.5t-0.5 25.5q4 13 16.5 18.5t25.5 0.5l124 -59q7 -4 10.5 -10.5t0.5 -14.5z" />
    <glyph glyph-name="Uacute" unicode="&#xda;" horiz-adv-x="699" 
d="M571 724q0 14 10 24t24 10t24 -10t10 -24v-451q0 -60 -23 -113t-62 -92t-91.5 -62t-112.5 -23t-113 23t-92 62t-62 92t-23 113v451q0 14 10 24t24 10t24 -10t10 -24v-451q0 -46 17.5 -86.5t47.5 -70.5t70.5 -47t86.5 -17t86 17t70 47t47.5 70.5t17.5 86.5v451zM256 797
q-3 8 0.5 14.5t10.5 10.5l124 59q13 5 25.5 -0.5t16.5 -18.5q5 -13 -0.5 -25.5t-19.5 -16.5l-133 -34q-17 -5 -24 11z" />
    <glyph glyph-name="Ucircumflex" unicode="&#xdb;" horiz-adv-x="699" 
d="M571 724q0 14 10 24t24 10t24 -10t10 -24v-451q0 -60 -23 -113t-62 -92t-91.5 -62t-112.5 -23t-113 23t-92 62t-62 92t-23 113v451q0 14 10 24t24 10t24 -10t10 -24v-451q0 -46 17.5 -86.5t47.5 -70.5t70.5 -47t86.5 -17t86 17t70 47t47.5 70.5t17.5 86.5v451zM349 918
q6 0 10.5 -2.5t13.5 -11.5t25 -27.5t45 -50.5q10 -11 3.5 -25t-21.5 -14q-6 0 -10.5 3t-8.5 7l-57 59l-57 -59q-4 -4 -9 -7t-10 -3q-7 0 -12.5 4t-8.5 10t-2.5 12.5t5.5 12.5q28 32 44 50.5t25 27.5t14 11.5t11 2.5z" />
    <glyph glyph-name="Udieresis" unicode="&#xdc;" horiz-adv-x="699" 
d="M294 836q0 -19 -13 -32t-31 -13t-31.5 13t-13.5 32q0 18 13.5 31t31.5 13t31 -13t13 -31zM491 836q0 -19 -12.5 -32t-30.5 -13q-19 0 -31.5 13t-12.5 32q0 18 12.5 31t31.5 13q18 0 30.5 -13t12.5 -31zM571 724q0 14 10 24t24 10t24 -10t10 -24v-451q0 -60 -23 -113
t-62 -92t-91.5 -62t-112.5 -23t-113 23t-92 62t-62 92t-23 113v451q0 14 10 24t24 10t24 -10t10 -24v-451q0 -46 17.5 -86.5t47.5 -70.5t70.5 -47t86.5 -17t86 17t70 47t47.5 70.5t17.5 86.5v451z" />
    <glyph glyph-name="Yacute" unicode="&#xdd;" horiz-adv-x="626" 
d="M220 797q-3 8 0.5 14.5t10.5 10.5l124 59q13 5 25.5 -0.5t16.5 -18.5q5 -13 -0.5 -25.5t-19.5 -16.5l-133 -34q-17 -5 -24 11zM343 343v-317q0 -14 -10 -24t-24 -10t-24 10t-10 24v327q0 13 7 21l263 370q10 14 28 14q10 0 18 -5.5t12 -13.5t4 -17.5t-6 -17.5zM17 705
q-8 11 -5.5 25t13.5 22q12 8 26.5 6.5t22.5 -13.5l187 -263q8 -11 5 -25.5t-14 -22.5q-12 -8 -26 -6t-22 14z" />
    <glyph glyph-name="Thorn" unicode="&#xde;" horiz-adv-x="650" 
d="M199 290q0 14 10 24t24 10h180q28 0 52 10.5t42 28.5t28.5 42.5t10.5 51.5t-10.5 51t-28.5 41.5t-42 28t-52 10.5h-180q-14 0 -24 10t-10 24t10 24t24 10h180q42 0 78.5 -15.5t63.5 -42.5t43 -63.5t16 -77.5q0 -42 -16 -78.5t-43 -63.5t-63.5 -43t-78.5 -16h-180
q-14 0 -24 10t-10 24zM129 26q0 -14 -10.5 -24t-24.5 -10t-24 10t-10 24v698q0 14 10 24t24 10t24.5 -10t10.5 -24v-698z" />
    <glyph glyph-name="germandbls" unicode="&#xdf;" horiz-adv-x="552" 
d="M206 373q-14 0 -24 10.5t-10 24.5t10 24t24 10h85q46 0 86 -17.5t70 -47.5t47.5 -70.5t17.5 -85.5t-17.5 -85.5t-47.5 -70.5t-70 -47.5t-86 -17.5h-85q-14 0 -24 10t-10 24t10 24.5t24 10.5h85q31 0 59 12t49 32.5t33 48t12 59.5q0 31 -12 59t-33 48.5t-49 32.5t-59 12
h-85zM366 494q0 5 2 10l4 10q13 28 13 57q0 27 -10 50t-27.5 40t-41 27t-50.5 10q-26 0 -49 -10t-40.5 -27t-27.5 -40t-10 -50v-716q0 -14 -10.5 -24t-24.5 -10t-24 10t-10 24v716q0 40 15.5 76t42 62.5t62 42t76.5 15.5t76.5 -15.5t62 -42t42 -62.5t15.5 -76
q0 -24 -5.5 -45.5t-14.5 -41.5q-10 -23 -32 -23q-14 0 -24 9.5t-10 23.5z" />
    <glyph glyph-name="agrave" unicode="&#xe0;" horiz-adv-x="715" 
d="M439 684q-7 -16 -24 -11l-133 34q-14 4 -19.5 16.5t-0.5 25.5q4 13 16.5 18.5t25.5 0.5l124 -59q7 -4 10.5 -10.5t0.5 -14.5zM348 52q72 0 133 38q5 3 10.5 5.5t11.5 2.5q14 0 24 -10t10 -24q0 -11 -6 -18.5t-14 -12.5q-37 -25 -80 -37.5t-89 -12.5q-63 0 -119 24
t-98 65.5t-66.5 97.5t-24.5 120q0 63 24.5 119t66.5 97.5t98 65.5t119 24q44 0 80 -11t65.5 -29.5t52.5 -43t40 -50.5v91q0 14 10 24t24 10t24.5 -10t10.5 -24v-527q0 -14 -10.5 -24t-24.5 -10t-23 8.5t-11 21.5v268q0 49 -19 92.5t-51 76t-75.5 51t-92.5 18.5
q-50 0 -93.5 -18.5t-75.5 -51t-51 -76t-19 -92.5q0 -50 19 -93.5t51 -75.5t75.5 -50.5t93.5 -18.5z" />
    <glyph glyph-name="aacute" unicode="&#xe1;" horiz-adv-x="715" 
d="M260 684q-3 8 0.5 14.5t10.5 10.5l124 59q13 5 25.5 -0.5t16.5 -18.5q5 -13 -0.5 -25.5t-19.5 -16.5l-133 -34q-17 -5 -24 11zM348 52q72 0 133 38q5 3 10.5 5.5t11.5 2.5q14 0 24 -10t10 -24q0 -11 -6 -18.5t-14 -12.5q-37 -25 -80 -37.5t-89 -12.5q-63 0 -119 24
t-98 65.5t-66.5 97.5t-24.5 120q0 63 24.5 119t66.5 97.5t98 65.5t119 24q44 0 80 -11t65.5 -29.5t52.5 -43t40 -50.5v91q0 14 10 24t24 10t24.5 -10t10.5 -24v-527q0 -14 -10.5 -24t-24.5 -10t-23 8.5t-11 21.5v268q0 49 -19 92.5t-51 76t-75.5 51t-92.5 18.5
q-50 0 -93.5 -18.5t-75.5 -51t-51 -76t-19 -92.5q0 -50 19 -93.5t51 -75.5t75.5 -50.5t93.5 -18.5z" />
    <glyph glyph-name="acircumflex" unicode="&#xe2;" horiz-adv-x="715" 
d="M347 794q6 0 10.5 -2.5t13.5 -11.5t25 -27.5t45 -50.5q10 -11 3.5 -25t-21.5 -14q-6 0 -10.5 3t-8.5 7l-57 59l-57 -59q-4 -4 -9 -7t-10 -3q-7 0 -12.5 4t-8.5 10t-2.5 12.5t5.5 12.5q28 32 44 50.5t25 27.5t14 11.5t11 2.5zM348 52q72 0 133 38q5 3 10.5 5.5t11.5 2.5
q14 0 24 -10t10 -24q0 -11 -6 -18.5t-14 -12.5q-37 -25 -80 -37.5t-89 -12.5q-63 0 -119 24t-98 65.5t-66.5 97.5t-24.5 120q0 63 24.5 119t66.5 97.5t98 65.5t119 24q44 0 80 -11t65.5 -29.5t52.5 -43t40 -50.5v91q0 14 10 24t24 10t24.5 -10t10.5 -24v-527
q0 -14 -10.5 -24t-24.5 -10t-23 8.5t-11 21.5v268q0 49 -19 92.5t-51 76t-75.5 51t-92.5 18.5q-50 0 -93.5 -18.5t-75.5 -51t-51 -76t-19 -92.5q0 -50 19 -93.5t51 -75.5t75.5 -50.5t93.5 -18.5z" />
    <glyph glyph-name="atilde" unicode="&#xe3;" horiz-adv-x="715" 
d="M237 696q1 30 21 50.5t49 20.5q20 0 35.5 -10.5t25.5 -25.5q5 -6 11.5 -11.5t14.5 -5.5q12 0 20.5 9t8.5 22q0 8 6 14t14 6t14 -6t6 -14q-1 -30 -21 -50.5t-48 -20.5q-20 0 -35 10.5t-25 25.5q-6 7 -12 12.5t-15 5.5q-13 0 -21.5 -9.5t-8.5 -22.5q0 -8 -6 -14t-14 -6
t-14 6t-6 14zM348 52q72 0 133 38q5 3 10.5 5.5t11.5 2.5q14 0 24 -10t10 -24q0 -11 -6 -18.5t-14 -12.5q-37 -25 -80 -37.5t-89 -12.5q-63 0 -119 24t-98 65.5t-66.5 97.5t-24.5 120q0 63 24.5 119t66.5 97.5t98 65.5t119 24q44 0 80 -11t65.5 -29.5t52.5 -43t40 -50.5v91
q0 14 10 24t24 10t24.5 -10t10.5 -24v-527q0 -14 -10.5 -24t-24.5 -10t-23 8.5t-11 21.5v268q0 49 -19 92.5t-51 76t-75.5 51t-92.5 18.5q-50 0 -93.5 -18.5t-75.5 -51t-51 -76t-19 -92.5q0 -50 19 -93.5t51 -75.5t75.5 -50.5t93.5 -18.5z" />
    <glyph glyph-name="adieresis" unicode="&#xe4;" horiz-adv-x="715" 
d="M292 723q0 -19 -13 -32t-31 -13t-31.5 13t-13.5 32q0 18 13.5 31t31.5 13t31 -13t13 -31zM489 723q0 -19 -12.5 -32t-30.5 -13q-19 0 -32 13t-13 32q0 18 13 31t32 13q18 0 30.5 -13t12.5 -31zM348 52q72 0 133 38q5 3 10.5 5.5t11.5 2.5q14 0 24 -10t10 -24
q0 -11 -6 -18.5t-14 -12.5q-37 -25 -80 -37.5t-89 -12.5q-63 0 -119 24t-98 65.5t-66.5 97.5t-24.5 120q0 63 24.5 119t66.5 97.5t98 65.5t119 24q44 0 80 -11t65.5 -29.5t52.5 -43t40 -50.5v91q0 14 10 24t24 10t24.5 -10t10.5 -24v-527q0 -14 -10.5 -24t-24.5 -10t-23 8.5
t-11 21.5v268q0 49 -19 92.5t-51 76t-75.5 51t-92.5 18.5q-50 0 -93.5 -18.5t-75.5 -51t-51 -76t-19 -92.5q0 -50 19 -93.5t51 -75.5t75.5 -50.5t93.5 -18.5z" />
    <glyph glyph-name="aring" unicode="&#xe5;" horiz-adv-x="715" 
d="M379 727q0 13 -9 21.5t-21 8.5q-14 0 -23 -8.5t-9 -21.5q0 -14 9 -22.5t23 -8.5q12 0 21 8.5t9 22.5zM422 727q0 -15 -6 -29t-16 -24t-23 -16t-28 -6q-31 0 -53 22t-22 53q0 30 22 51.5t53 21.5q29 0 51 -21.5t22 -51.5zM348 52q72 0 133 38q5 3 10.5 5.5t11.5 2.5
q14 0 24 -10t10 -24q0 -11 -6 -18.5t-14 -12.5q-37 -25 -80 -37.5t-89 -12.5q-63 0 -119 24t-98 65.5t-66.5 97.5t-24.5 120q0 63 24.5 119t66.5 97.5t98 65.5t119 24q44 0 80 -11t65.5 -29.5t52.5 -43t40 -50.5v91q0 14 10 24t24 10t24.5 -10t10.5 -24v-527
q0 -14 -10.5 -24t-24.5 -10t-23 8.5t-11 21.5v268q0 49 -19 92.5t-51 76t-75.5 51t-92.5 18.5q-50 0 -93.5 -18.5t-75.5 -51t-51 -76t-19 -92.5q0 -50 19 -93.5t51 -75.5t75.5 -50.5t93.5 -18.5z" />
    <glyph glyph-name="ae" unicode="&#xe6;" horiz-adv-x="1240" 
d="M716 290q0 14 10 24t24 10h386q-6 43 -26.5 80.5t-51.5 65t-71 43t-85 15.5q-49 0 -94 -18.5t-79 -51t-54 -76t-20 -92.5q0 -50 20 -93.5t54 -75.5t79 -50.5t94 -18.5q60 0 109.5 26t81.5 73q10 17 29 17q11 0 19 -5.5t12 -13.5t3.5 -17.5t-5.5 -17.5q-17 -26 -43 -50
t-58.5 -42t-70 -28.5t-77.5 -10.5q-80 0 -144 36.5t-103 98.5v-92q0 -14 -10.5 -24t-24.5 -10t-23 8.5t-11 21.5v268q0 49 -19 92.5t-51 76t-75.5 51t-92.5 18.5q-50 0 -93.5 -18.5t-75.5 -51t-51 -76t-19 -92.5q0 -50 19 -93.5t51 -75.5t75.5 -50.5t93.5 -18.5q72 0 133 38
q5 3 10.5 5.5t11.5 2.5q14 0 24 -10t10 -24q0 -11 -6 -18.5t-14 -12.5q-37 -25 -80 -37.5t-89 -12.5q-63 0 -119 24t-98 65.5t-66.5 97.5t-24.5 120q0 63 24.5 119t66.5 97.5t98 65.5t119 24q44 0 80 -11t65.5 -29.5t52.5 -43t40 -50.5v91q0 14 10 24t24 10t24.5 -10
t10.5 -24v-92q39 61 103 98t144 37q63 0 118 -24t96 -65t65.5 -97t25.5 -120q0 -14 -10.5 -24t-24.5 -10h-422q-14 0 -24 10t-10 24z" />
    <glyph glyph-name="ccedilla" unicode="&#xe7;" horiz-adv-x="609" 
d="M325 -16q-60 4 -112 29.5t-90.5 66.5t-60.5 95t-22 115q0 64 24 119.5t65.5 97t97.5 66t120 24.5q62 0 117.5 -23t100.5 -68q9 -10 9.5 -24t-9.5 -24t-24 -9.5t-25 10.5q-34 33 -77 51t-92 19q-49 0 -92.5 -19t-75.5 -51.5t-51 -75.5t-19 -92q0 -50 19 -93.5t51 -76
t75.5 -51t92.5 -18.5q51 0 94.5 19t75.5 51q10 9 23.5 9t23.5 -10q11 -10 11 -24t-10 -23q-45 -43 -98 -66t-115 -25l-11 -37q20 2 37 -7t27 -26q13 -23 6 -50t-31 -40q-23 -14 -48.5 -7.5t-41.5 29.5q-5 6 -3.5 11.5t6 8.5t10.5 2t10 -7q8 -14 24 -18t30 4t18 23.5t-4 30.5
q-8 14 -23 18.5t-29 -2.5q-6 -5 -14 -2t-6 13z" />
    <glyph glyph-name="egrave" unicode="&#xe8;" horiz-adv-x="691" 
d="M435 684q-7 -16 -24 -11l-133 34q-14 4 -19.5 16.5t-0.5 25.5q4 13 16.5 18.5t25.5 0.5l124 -59q7 -4 10.5 -10.5t0.5 -14.5zM160 290q0 14 10 24t24 10h386q-6 43 -26.5 80.5t-51.5 65t-71 43t-85 15.5q-49 0 -92 -18.5t-75.5 -51t-51 -76t-18.5 -92.5q0 -50 18.5 -93.5
t51 -75.5t75.5 -50.5t92 -18.5q60 0 109.5 26t81.5 73q10 17 29 17q11 0 19 -5.5t12 -13.5t3.5 -17.5t-5.5 -17.5q-17 -26 -43 -50t-58.5 -42t-70 -28.5t-77.5 -10.5q-63 0 -119 24t-97.5 65.5t-65.5 97.5t-24 120q0 63 24 119t65.5 97.5t97.5 65.5t119 24t118 -24t96 -65
t65.5 -97t25.5 -120q0 -14 -10.5 -24t-24.5 -10h-422q-14 0 -24 10t-10 24z" />
    <glyph glyph-name="eacute" unicode="&#xe9;" horiz-adv-x="691" 
d="M256 684q-3 8 0.5 14.5t10.5 10.5l124 59q13 5 25.5 -0.5t16.5 -18.5q5 -13 -0.5 -25.5t-19.5 -16.5l-133 -34q-17 -5 -24 11zM160 290q0 14 10 24t24 10h386q-6 43 -26.5 80.5t-51.5 65t-71 43t-85 15.5q-49 0 -92 -18.5t-75.5 -51t-51 -76t-18.5 -92.5
q0 -50 18.5 -93.5t51 -75.5t75.5 -50.5t92 -18.5q60 0 109.5 26t81.5 73q10 17 29 17q11 0 19 -5.5t12 -13.5t3.5 -17.5t-5.5 -17.5q-17 -26 -43 -50t-58.5 -42t-70 -28.5t-77.5 -10.5q-63 0 -119 24t-97.5 65.5t-65.5 97.5t-24 120q0 63 24 119t65.5 97.5t97.5 65.5t119 24
t118 -24t96 -65t65.5 -97t25.5 -120q0 -14 -10.5 -24t-24.5 -10h-422q-14 0 -24 10t-10 24z" />
    <glyph glyph-name="ecircumflex" unicode="&#xea;" horiz-adv-x="691" 
d="M345 794q6 0 10.5 -2.5t13.5 -11.5t25 -27.5t45 -50.5q10 -11 3.5 -25t-21.5 -14q-6 0 -10.5 3t-8.5 7l-57 59l-57 -59q-4 -4 -9 -7t-10 -3q-7 0 -12.5 4t-8.5 10t-2.5 12.5t5.5 12.5q28 32 44 50.5t25 27.5t14 11.5t11 2.5zM160 290q0 14 10 24t24 10h386
q-6 43 -26.5 80.5t-51.5 65t-71 43t-85 15.5q-49 0 -92 -18.5t-75.5 -51t-51 -76t-18.5 -92.5q0 -50 18.5 -93.5t51 -75.5t75.5 -50.5t92 -18.5q60 0 109.5 26t81.5 73q10 17 29 17q11 0 19 -5.5t12 -13.5t3.5 -17.5t-5.5 -17.5q-17 -26 -43 -50t-58.5 -42t-70 -28.5
t-77.5 -10.5q-63 0 -119 24t-97.5 65.5t-65.5 97.5t-24 120q0 63 24 119t65.5 97.5t97.5 65.5t119 24t118 -24t96 -65t65.5 -97t25.5 -120q0 -14 -10.5 -24t-24.5 -10h-422q-14 0 -24 10t-10 24z" />
    <glyph glyph-name="edieresis" unicode="&#xeb;" horiz-adv-x="691" 
d="M291 723q0 -19 -13 -32t-31 -13t-31.5 13t-13.5 32q0 18 13.5 31t31.5 13t31 -13t13 -31zM488 723q0 -19 -12.5 -32t-30.5 -13q-19 0 -32 13t-13 32q0 18 13 31t32 13q18 0 30.5 -13t12.5 -31zM160 290q0 14 10 24t24 10h386q-6 43 -26.5 80.5t-51.5 65t-71 43t-85 15.5
q-49 0 -92 -18.5t-75.5 -51t-51 -76t-18.5 -92.5q0 -50 18.5 -93.5t51 -75.5t75.5 -50.5t92 -18.5q60 0 109.5 26t81.5 73q10 17 29 17q11 0 19 -5.5t12 -13.5t3.5 -17.5t-5.5 -17.5q-17 -26 -43 -50t-58.5 -42t-70 -28.5t-77.5 -10.5q-63 0 -119 24t-97.5 65.5t-65.5 97.5
t-24 120q0 63 24 119t65.5 97.5t97.5 65.5t119 24t118 -24t96 -65t65.5 -97t25.5 -120q0 -14 -10.5 -24t-24.5 -10h-422q-14 0 -24 10t-10 24z" />
    <glyph glyph-name="igrave" unicode="&#xec;" 
d="M60 553q0 14 10 24t24 10t24.5 -10t10.5 -24v-527q0 -14 -10.5 -24t-24.5 -10t-24 10t-10 24v527zM183 684q-7 -16 -24 -11l-133 34q-14 4 -19.5 16.5t-0.5 25.5q4 13 16.5 18.5t25.5 0.5l124 -59q7 -4 10.5 -10.5t0.5 -14.5z" />
    <glyph glyph-name="iacute" unicode="&#xed;" 
d="M60 553q0 14 10 24t24 10t24.5 -10t10.5 -24v-527q0 -14 -10.5 -24t-24.5 -10t-24 10t-10 24v527zM6 684q-3 8 0.5 14.5t10.5 10.5l124 59q13 5 25.5 -0.5t16.5 -18.5q5 -13 -0.5 -25.5t-19.5 -16.5l-133 -34q-17 -5 -24 11z" />
    <glyph glyph-name="icircumflex" unicode="&#xee;" 
d="M60 553q0 14 10 24t24 10t24.5 -10t10.5 -24v-527q0 -14 -10.5 -24t-24.5 -10t-24 10t-10 24v527zM94 794q6 0 10.5 -2.5t13.5 -11.5t25 -27.5t45 -50.5q10 -11 3.5 -25t-21.5 -14q-6 0 -10.5 3t-8.5 7l-57 59l-57 -59q-4 -4 -9 -7t-10 -3q-7 0 -12.5 4t-8.5 10
t-2.5 12.5t5.5 12.5q28 32 44 50.5t25 27.5t14 11.5t11 2.5z" />
    <glyph glyph-name="idieresis" unicode="&#xef;" 
d="M59 723q0 -19 -13.5 -32t-31.5 -13t-31 13t-13 32q0 18 13 31t31 13t31.5 -13t13.5 -31zM219 723q0 -19 -12.5 -32t-30.5 -13q-20 0 -32.5 13t-12.5 32q0 18 12.5 31t32.5 13q18 0 30.5 -13t12.5 -31zM60 553q0 14 10 24t24 10t24.5 -10t10.5 -24v-527q0 -14 -10.5 -24
t-24.5 -10t-24 10t-10 24v527z" />
    <glyph glyph-name="eth" unicode="&#xf0;" horiz-adv-x="676" 
d="M201 624q-3 10 1.5 19.5t14.5 12.5l47 13l-30 31q-10 10 -10 25q1 14 10.5 23.5t23.5 9.5q8 0 14.5 -3.5t12.5 -8.5l54 -55l66 19q10 2 19 -3t12 -16q3 -10 -2 -19t-15 -12l-39 -11l173 -177q38 -39 60 -90t22 -109q0 -60 -23.5 -113t-64 -92t-95 -62t-115.5 -23
q-62 0 -116 23t-94.5 62t-64 92t-23.5 113q0 53 18.5 102t51 87.5t77 64t97.5 31.5q23 2 33.5 -9t10.5 -25t-8.5 -23.5t-21.5 -11.5q-41 -7 -76 -26.5t-60.5 -48t-40 -65t-14.5 -77.5q0 -46 18 -86t49 -70t73 -47.5t90 -17.5t90 17.5t73.5 47.5t49.5 70t18 86q0 41 -14.5 78
t-41.5 66l-206 211l-73 -20q-11 -3 -20 1.5t-11 15.5z" />
    <glyph glyph-name="ntilde" unicode="&#xf1;" horiz-adv-x="614" 
d="M204 696q1 30 21 50.5t49 20.5q20 0 35.5 -10.5t25.5 -25.5q5 -6 11.5 -11.5t14.5 -5.5q12 0 20.5 9t8.5 22q0 8 6 14t14 6t14 -6t6 -14q-1 -30 -21 -50.5t-48 -20.5q-20 0 -35 10.5t-25 25.5q-6 7 -12 12.5t-15 5.5q-13 0 -21.5 -9.5t-8.5 -22.5q0 -8 -6 -14t-14 -6
t-14 6t-6 14zM178 534q0 20 17 30q26 15 58 23.5t70 8.5q54 0 97 -17t72.5 -47.5t45.5 -73t16 -93.5v-339q0 -14 -10 -24t-24 -10t-23.5 10t-9.5 24v339q0 74 -45 118.5t-119 44.5q-27 0 -50 -6.5t-42 -17.5q-8 -5 -18 -5q-14 0 -24.5 10.5t-10.5 24.5zM60 553q0 14 10 24
t24 10t24.5 -10t10.5 -24v-527q0 -14 -10.5 -24t-24.5 -10t-24 10t-10 24v527z" />
    <glyph glyph-name="ograve" unicode="&#xf2;" horiz-adv-x="695" 
d="M347 52q50 0 93.5 18.5t76 50.5t51.5 75.5t19 93.5q0 49 -19 92.5t-51.5 76t-76 51t-93.5 18.5q-49 0 -92.5 -18.5t-75.5 -51t-51 -76t-19 -92.5q0 -50 19 -93.5t51 -75.5t75.5 -50.5t92.5 -18.5zM347 -17q-63 0 -119 24t-98 65.5t-66 97.5t-24 120q0 63 24 119t66 97.5
t98 65.5t119 24q64 0 120 -24t98 -65.5t66 -97.5t24 -119q0 -64 -24 -120t-66 -97.5t-98 -65.5t-120 -24zM439 684q-7 -16 -24 -11l-133 34q-14 4 -19.5 16.5t-0.5 25.5q4 13 16.5 18.5t25.5 0.5l124 -59q7 -4 10.5 -10.5t0.5 -14.5z" />
    <glyph glyph-name="oacute" unicode="&#xf3;" horiz-adv-x="695" 
d="M347 52q50 0 93.5 18.5t76 50.5t51.5 75.5t19 93.5q0 49 -19 92.5t-51.5 76t-76 51t-93.5 18.5q-49 0 -92.5 -18.5t-75.5 -51t-51 -76t-19 -92.5q0 -50 19 -93.5t51 -75.5t75.5 -50.5t92.5 -18.5zM347 -17q-63 0 -119 24t-98 65.5t-66 97.5t-24 120q0 63 24 119t66 97.5
t98 65.5t119 24q64 0 120 -24t98 -65.5t66 -97.5t24 -119q0 -64 -24 -120t-66 -97.5t-98 -65.5t-120 -24zM260 684q-3 8 0.5 14.5t10.5 10.5l124 59q13 5 25.5 -0.5t16.5 -18.5q5 -13 -0.5 -25.5t-19.5 -16.5l-133 -34q-17 -5 -24 11z" />
    <glyph glyph-name="ocircumflex" unicode="&#xf4;" horiz-adv-x="695" 
d="M347 52q50 0 93.5 18.5t76 50.5t51.5 75.5t19 93.5q0 49 -19 92.5t-51.5 76t-76 51t-93.5 18.5q-49 0 -92.5 -18.5t-75.5 -51t-51 -76t-19 -92.5q0 -50 19 -93.5t51 -75.5t75.5 -50.5t92.5 -18.5zM347 -17q-63 0 -119 24t-98 65.5t-66 97.5t-24 120q0 63 24 119t66 97.5
t98 65.5t119 24q64 0 120 -24t98 -65.5t66 -97.5t24 -119q0 -64 -24 -120t-66 -97.5t-98 -65.5t-120 -24zM347 794q6 0 10.5 -2.5t13.5 -11.5t25 -27.5t45 -50.5q10 -11 3.5 -25t-21.5 -14q-6 0 -10.5 3t-8.5 7l-57 59l-57 -59q-4 -4 -9 -7t-10 -3q-7 0 -12.5 4t-8.5 10
t-2.5 12.5t5.5 12.5q28 32 44 50.5t25 27.5t14 11.5t11 2.5z" />
    <glyph glyph-name="otilde" unicode="&#xf5;" horiz-adv-x="695" 
d="M347 52q50 0 93.5 18.5t76 50.5t51.5 75.5t19 93.5q0 49 -19 92.5t-51.5 76t-76 51t-93.5 18.5q-49 0 -92.5 -18.5t-75.5 -51t-51 -76t-19 -92.5q0 -50 19 -93.5t51 -75.5t75.5 -50.5t92.5 -18.5zM347 -17q-63 0 -119 24t-98 65.5t-66 97.5t-24 120q0 63 24 119t66 97.5
t98 65.5t119 24q64 0 120 -24t98 -65.5t66 -97.5t24 -119q0 -64 -24 -120t-66 -97.5t-98 -65.5t-120 -24zM232 696q1 30 21 50.5t49 20.5q20 0 35.5 -10.5t25.5 -25.5q5 -6 11.5 -11.5t14.5 -5.5q12 0 20.5 9t8.5 22q0 8 6 14t14 6t14 -6t6 -14q-1 -30 -21 -50.5t-48 -20.5
q-20 0 -35 10.5t-25 25.5q-6 7 -12 12.5t-15 5.5q-13 0 -21.5 -9.5t-8.5 -22.5q0 -8 -6 -14t-14 -6t-14 6t-6 14z" />
    <glyph glyph-name="odieresis" unicode="&#xf6;" horiz-adv-x="695" 
d="M293 723q0 -19 -13 -32t-31 -13t-31.5 13t-13.5 32q0 18 13.5 31t31.5 13t31 -13t13 -31zM490 723q0 -19 -12.5 -32t-30.5 -13q-19 0 -32 13t-13 32q0 18 13 31t32 13q18 0 30.5 -13t12.5 -31zM347 52q50 0 93.5 18.5t76 50.5t51.5 75.5t19 93.5q0 49 -19 92.5t-51.5 76
t-76 51t-93.5 18.5q-49 0 -92.5 -18.5t-75.5 -51t-51 -76t-19 -92.5q0 -50 19 -93.5t51 -75.5t75.5 -50.5t92.5 -18.5zM347 -17q-63 0 -119 24t-98 65.5t-66 97.5t-24 120q0 63 24 119t66 97.5t98 65.5t119 24q64 0 120 -24t98 -65.5t66 -97.5t24 -119q0 -64 -24 -120
t-66 -97.5t-98 -65.5t-120 -24z" />
    <glyph glyph-name="divide" unicode="&#xf7;" horiz-adv-x="679" 
d="M391 46q0 -22 -14.5 -37t-36.5 -15q-21 0 -36 15t-15 37q0 20 15 35t36 15q22 0 36.5 -15t14.5 -35zM289 535q0 22 15 37t36 15q22 0 36.5 -15t14.5 -37q0 -21 -14.5 -36t-36.5 -15q-21 0 -36 15t-15 36zM42 289q0 14 9.5 24t23.5 10h528q14 0 24 -10t10 -24t-10 -23.5
t-24 -9.5h-528q-14 0 -23.5 9.5t-9.5 23.5z" />
    <glyph glyph-name="oslash" unicode="&#xf8;" horiz-adv-x="703" 
d="M591 577q10 11 24 11t24 -11q10 -10 10.5 -24t-9.5 -25l-528 -527q-10 -11 -24 -10.5t-25 11.5q-10 10 -10 23.5t10 24.5zM592 422q13 6 26.5 0t20.5 -23q9 -26 14.5 -53t5.5 -56q0 -64 -24 -120t-66 -97.5t-98 -65.5t-120 -24q-29 0 -56 5.5t-53 14.5q-17 7 -23 20.5
t0 26.5q5 14 18 19t26 -1q23 -9 44 -12.5t44 -3.5q50 0 93.5 18.5t76 50.5t51.5 75.5t19 93.5q0 45 -17 88q-6 13 -1 26t19 18zM111 157q-13 -6 -26.5 0t-20.5 23q-9 26 -14.5 53t-5.5 56q0 64 24 120t66 97.5t98 65.5t120 24q29 0 56 -5.5t53 -14.5q17 -7 23 -20.5t0 -26.5
q-5 -14 -18 -19t-26 1q-23 9 -44 12.5t-44 3.5q-50 0 -93.5 -18.5t-76 -50.5t-51.5 -75.5t-19 -93.5q0 -23 4 -44t13 -44q6 -13 1 -26t-19 -18z" />
    <glyph glyph-name="ugrave" unicode="&#xf9;" horiz-adv-x="616" 
d="M398 684q-7 -16 -24 -11l-133 34q-14 4 -19.5 16.5t-0.5 25.5q4 13 16.5 18.5t25.5 0.5l124 -59q7 -4 10.5 -10.5t0.5 -14.5zM436 45q0 -20 -17 -30q-26 -15 -58 -23.5t-70 -8.5q-54 0 -97 17t-72.5 47.5t-45.5 73t-16 93.5v339q0 14 10 24t24 10t23.5 -10t9.5 -24v-339
q0 -74 45 -118.5t119 -44.5q27 0 50 6.5t42 17.5q7 5 18 5q14 0 24.5 -10.5t10.5 -24.5zM554 26q0 -14 -10 -24t-24 -10t-24.5 10t-10.5 24v527q0 14 10.5 24t24.5 10t24 -10t10 -24v-527z" />
    <glyph glyph-name="uacute" unicode="&#xfa;" horiz-adv-x="616" 
d="M219 684q-3 8 0.5 14.5t10.5 10.5l124 59q13 5 25.5 -0.5t16.5 -18.5q5 -13 -0.5 -25.5t-19.5 -16.5l-133 -34q-17 -5 -24 11zM436 45q0 -20 -17 -30q-26 -15 -58 -23.5t-70 -8.5q-54 0 -97 17t-72.5 47.5t-45.5 73t-16 93.5v339q0 14 10 24t24 10t23.5 -10t9.5 -24v-339
q0 -74 45 -118.5t119 -44.5q27 0 50 6.5t42 17.5q7 5 18 5q14 0 24.5 -10.5t10.5 -24.5zM554 26q0 -14 -10 -24t-24 -10t-24.5 10t-10.5 24v527q0 14 10.5 24t24.5 10t24 -10t10 -24v-527z" />
    <glyph glyph-name="ucircumflex" unicode="&#xfb;" horiz-adv-x="616" 
d="M308 794q6 0 10.5 -2.5t13.5 -11.5t25 -27.5t45 -50.5q10 -11 3.5 -25t-21.5 -14q-6 0 -10.5 3t-8.5 7l-57 59l-57 -59q-4 -4 -9 -7t-10 -3q-7 0 -12.5 4t-8.5 10t-2.5 12.5t5.5 12.5q28 32 44 50.5t25 27.5t14 11.5t11 2.5zM436 45q0 -20 -17 -30q-26 -15 -58 -23.5
t-70 -8.5q-54 0 -97 17t-72.5 47.5t-45.5 73t-16 93.5v339q0 14 10 24t24 10t23.5 -10t9.5 -24v-339q0 -74 45 -118.5t119 -44.5q27 0 50 6.5t42 17.5q7 5 18 5q14 0 24.5 -10.5t10.5 -24.5zM554 26q0 -14 -10 -24t-24 -10t-24.5 10t-10.5 24v527q0 14 10.5 24t24.5 10
t24 -10t10 -24v-527z" />
    <glyph glyph-name="udieresis" unicode="&#xfc;" horiz-adv-x="616" 
d="M254 723q0 -19 -13 -32t-31 -13t-31.5 13t-13.5 32q0 18 13.5 31t31.5 13t31 -13t13 -31zM451 723q0 -19 -12.5 -32t-30.5 -13q-19 0 -32 13t-13 32q0 18 13 31t32 13q18 0 30.5 -13t12.5 -31zM436 45q0 -20 -17 -30q-26 -15 -58 -23.5t-70 -8.5q-54 0 -97 17t-72.5 47.5
t-45.5 73t-16 93.5v339q0 14 10 24t24 10t23.5 -10t9.5 -24v-339q0 -74 45 -118.5t119 -44.5q27 0 50 6.5t42 17.5q7 5 18 5q14 0 24.5 -10.5t10.5 -24.5zM554 26q0 -14 -10 -24t-24 -10t-24.5 10t-10.5 24v527q0 14 10.5 24t24.5 10t24 -10t10 -24v-527z" />
    <glyph glyph-name="yacute" unicode="&#xfd;" horiz-adv-x="584" 
d="M206 684q-3 8 0.5 14.5t10.5 10.5l124 59q13 5 25.5 -0.5t16.5 -18.5q5 -13 -0.5 -25.5t-19.5 -16.5l-133 -34q-17 -5 -24 11zM199 -176q-13 6 -17.5 19t1.5 26l324 699q6 13 19.5 17.5t26.5 -1.5t17.5 -19t-1.5 -26l-324 -699q-6 -13 -19.5 -17.5t-26.5 1.5zM245 125
q-13 -6 -26.5 -1.5t-19.5 17.5l-184 398q-6 13 -1.5 26t17.5 19t26.5 1.5t19.5 -17.5l184 -398q6 -13 1.5 -26t-17.5 -19z" />
    <glyph glyph-name="thorn" unicode="&#xfe;" horiz-adv-x="715" 
d="M367 527q-72 0 -133 -38q-5 -3 -10.5 -5.5t-11.5 -2.5q-14 0 -24 10t-10 24q0 11 6 18.5t14 12.5q37 25 80 37.5t89 12.5q63 0 119 -24t98 -65.5t66.5 -97.5t24.5 -120q0 -63 -24.5 -119t-66.5 -97.5t-98 -65.5t-119 -24q-44 0 -80 11t-65.5 29.5t-52.5 43t-40 50.5v-262
q0 -14 -10 -24t-24 -10t-24.5 10t-10.5 24v869q0 14 10.5 24t24.5 10t23 -8.5t11 -21.5v-439q0 -50 19 -93t51 -75.5t75.5 -51t92.5 -18.5t93 18.5t76 51t51 75.5t19 93t-19 93.5t-51 75.5t-76 50.5t-93 18.5z" />
    <glyph glyph-name="ydieresis" unicode="&#xff;" horiz-adv-x="584" 
d="M237 723q0 -19 -13 -32t-31 -13t-31.5 13t-13.5 32q0 18 13.5 31t31.5 13t31 -13t13 -31zM434 723q0 -19 -12.5 -32t-30.5 -13q-19 0 -32 13t-13 32q0 18 13 31t32 13q18 0 30.5 -13t12.5 -31zM199 -176q-13 6 -17.5 19t1.5 26l324 699q6 13 19.5 17.5t26.5 -1.5
t17.5 -19t-1.5 -26l-324 -699q-6 -13 -19.5 -17.5t-26.5 1.5zM245 125q-13 -6 -26.5 -1.5t-19.5 17.5l-184 398q-6 13 -1.5 26t17.5 19t26.5 1.5t19.5 -17.5l184 -398q6 -13 1.5 -26t-17.5 -19z" />
    <glyph glyph-name="dotlessi" unicode="&#x131;" 
d="M60 553q0 14 10 24t24 10t24.5 -10t10.5 -24v-527q0 -14 -10.5 -24t-24.5 -10t-24 10t-10 24v527z" />
    <glyph glyph-name="OE" unicode="&#x152;" horiz-adv-x="1331" 
d="M427 767q88 0 165 -37t131 -100v86q0 14 10 24t24 10h478q14 0 24 -10t10 -24t-10 -24t-24 -10h-443v-170q0 -14 -10.5 -24t-24.5 -10q-24 0 -32 21q-18 44 -48 80.5t-68.5 63t-84.5 41t-97 14.5q-67 0 -126 -25.5t-103 -69t-69.5 -102.5t-25.5 -126t25.5 -126
t69.5 -102.5t103 -69t126 -25.5q51 0 97 14.5t84 40.5q8 7 21 7q14 0 24 -10t10 -24q0 -20 -17 -30q-97 -67 -219 -67q-81 0 -152.5 31t-125 84t-84 124.5t-30.5 152.5t30.5 152.5t84 124.5t125 84t152.5 31zM723 374q0 14 10 24.5t24 10.5h409q14 0 24 -10.5t10 -24.5
t-10 -24t-24 -10h-374v-271h443q14 -1 24 -11t10 -24t-10 -24t-24 -10h-478q-14 0 -24 10t-10 24v340z" />
    <glyph glyph-name="oe" unicode="&#x153;" horiz-adv-x="1237" 
d="M347 52q52 0 97.5 19.5t78.5 54.5q5 5 11.5 9t14.5 4q14 0 24 -10t10 -24q0 -12 -8 -22q-43 -47 -101.5 -73.5t-126.5 -26.5q-63 0 -119 24t-98 65.5t-66 97.5t-24 120q0 63 24 119t66 97.5t98 65.5t119 24q45 0 86 -12t76 -34t63.5 -52.5t47.5 -67.5q19 37 47 67.5
t63.5 52.5t76 34t85.5 12q63 0 118 -24t96 -65t65.5 -97t25.5 -120q0 -14 -10.5 -24t-24.5 -10h-422q-14 0 -24 10t-10 24t10 24t24 10h386q-6 43 -26.5 80.5t-51.5 65t-71 43t-85 15.5q-49 0 -92 -18.5t-75.5 -51t-51 -76t-18.5 -92.5q0 -50 18.5 -93.5t51 -75.5
t75.5 -50.5t92 -18.5q60 0 109.5 26t81.5 73q10 17 29 17q11 0 19 -5.5t12 -13.5t3.5 -17.5t-5.5 -17.5q-17 -26 -43 -50t-58.5 -42t-70 -28.5t-77.5 -10.5q-63 0 -119 24t-97 65.5t-65 97.5t-24 120q0 49 -19 92.5t-51.5 76t-76 51t-93.5 18.5q-49 0 -92.5 -18.5t-75.5 -51
t-51 -76t-19 -92.5q0 -50 19 -93.5t51 -75.5t75.5 -50.5t92.5 -18.5z" />
    <glyph glyph-name="Scaron" unicode="&#x160;" horiz-adv-x="591" 
d="M40 93q0 14 10 24t24 10q11 0 20 -6q42 -32 92.5 -50.5t114.5 -18.5q39 0 72 11.5t58 32t39 47.5t14 58q0 50 -37 88t-93 54l-129 32q-36 9 -67 27.5t-53.5 44t-35 56t-12.5 63.5q0 42 18 78.5t49.5 63.5t74 43t92.5 16q64 0 118.5 -17.5t101.5 -47.5q7 -5 11.5 -12.5
t4.5 -16.5q0 -14 -10 -24t-24 -10q-13 0 -20 6q-38 25 -83 39t-99 14q-36 0 -66 -10.5t-52.5 -28.5t-35 -42t-12.5 -51q0 -44 33 -77.5t84 -47.5l125 -32q40 -10 74 -30t58.5 -47.5t38 -60.5t13.5 -70q0 -45 -19 -84.5t-53 -69.5t-79.5 -47t-98.5 -17q-74 0 -135 22t-112 60
q-14 9 -14 28zM296 787q-6 0 -11 2.5t-14 11.5t-25 27.5t-44 50.5q-5 6 -5.5 12.5t2.5 12.5t8.5 10t12.5 4q5 0 10 -3t9 -7l57 -59l57 59q4 4 8.5 7t10.5 3q15 0 21.5 -14t-3.5 -25q-29 -32 -45 -50.5t-25 -27.5t-13.5 -11.5t-10.5 -2.5z" />
    <glyph glyph-name="scaron" unicode="&#x161;" horiz-adv-x="546" 
d="M40 73q0 10 5 18t12.5 12.5t16.5 5t18 -4.5q37 -21 83 -36.5t95 -15.5q46 0 80 14t54.5 35t26.5 46.5t-4 49.5t-36.5 42.5t-71.5 26.5l-114 15q-29 4 -57.5 13t-51 27t-35 46t-10.5 70q2 34 19 63t46 50.5t67.5 34t82.5 12.5q57 0 101.5 -12t86.5 -35q9 -5 15 -12.5
t6 -18.5q0 -10 -5 -17.5t-12.5 -12t-17 -4.5t-18.5 5q-35 17 -72 27.5t-84 10.5q-56 0 -92.5 -24.5t-47 -55.5t9.5 -60t78 -39l130 -18q33 -5 62.5 -18.5t51.5 -35t35 -52t13 -67.5q0 -36 -16.5 -68t-47.5 -56t-74.5 -37.5t-97.5 -13.5q-58 0 -113.5 16.5t-100.5 43.5
q-16 10 -16 30zM266 663q-6 0 -11 2.5t-14 11.5t-25 27.5t-44 50.5q-5 6 -5.5 12.5t2.5 12.5t8.5 10t12.5 4q5 0 10 -3t9 -7l57 -59l57 59q4 4 8.5 7t10.5 3q15 0 21.5 -14t-3.5 -25q-29 -32 -45 -50.5t-25 -27.5t-13.5 -11.5t-10.5 -2.5z" />
    <glyph glyph-name="Ydieresis" unicode="&#x178;" horiz-adv-x="626" 
d="M253 836q0 -19 -13 -32t-31 -13t-31.5 13t-13.5 32q0 18 13.5 31t31.5 13t31 -13t13 -31zM450 836q0 -19 -12.5 -32t-30.5 -13q-19 0 -31.5 13t-12.5 32q0 18 12.5 31t31.5 13q18 0 30.5 -13t12.5 -31zM343 343v-317q0 -14 -10 -24t-24 -10t-24 10t-10 24v327q0 13 7 21
l263 370q10 14 28 14q10 0 18 -5.5t12 -13.5t4 -17.5t-6 -17.5zM17 705q-8 11 -5.5 25t13.5 22q12 8 26.5 6.5t22.5 -13.5l187 -263q8 -11 5 -25.5t-14 -22.5q-12 -8 -26 -6t-22 14z" />
    <glyph glyph-name="Zcaron" unicode="&#x17d;" horiz-adv-x="641" 
d="M311 787q-6 0 -11 2.5t-14 11.5t-25 27.5t-44 50.5q-5 6 -5.5 12.5t2.5 12.5t8.5 10t12.5 4q5 0 10 -3t9 -7l57 -59l57 59q4 4 8.5 7t10.5 3q15 0 21.5 -14t-3.5 -25q-29 -32 -45 -50.5t-25 -27.5t-13.5 -11.5t-10.5 -2.5zM619 34q0 -14 -10 -24t-24 -10h-529
q-14 0 -24 10t-10 24q0 12 8 22l483 626h-457q-14 0 -24 10t-10 24t10 24t24 10h529q14 0 24 -10t10 -24q0 -12 -8 -22l-483 -626h457q14 0 24 -10t10 -24z" />
    <glyph glyph-name="zcaron" unicode="&#x17e;" horiz-adv-x="526" 
d="M266 663q-6 0 -11 2.5t-14 11.5t-25 27.5t-44 50.5q-5 6 -5.5 12.5t2.5 12.5t8.5 10t12.5 4q5 0 10 -3t9 -7l57 -59l57 59q4 4 8.5 7t10.5 3q15 0 21.5 -14t-3.5 -25q-29 -32 -45 -50.5t-25 -27.5t-13.5 -11.5t-10.5 -2.5zM502 545q0 -12 -8 -22l-362 -454h335
q14 0 24.5 -10.5t10.5 -24.5t-10.5 -24t-24.5 -10h-408q-14 0 -24.5 10t-10.5 24q0 12 8 22l362 454h-335q-14 0 -24.5 10.5t-10.5 24.5t10.5 24t24.5 10h408q14 0 24.5 -10t10.5 -24z" />
    <glyph glyph-name="florin" unicode="&#x192;" horiz-adv-x="416" 
d="M138 511q-14 0 -23 10t-7 24t13.5 24t25.5 10h68l5 34q4 28 18 53t35 44t47 29.5t54 10.5q14 0 22.5 -10t6.5 -24t-13 -24t-25 -10h-4q-27 -2 -48 -22t-25 -47l-5 -34h67q14 0 22.5 -10t6.5 -24t-13 -24t-25 -10h-203zM197 -34q-4 -27 -18 -51.5t-34.5 -43.5t-46 -30
t-52.5 -12h-4q-14 0 -22.5 10t-6.5 24t13 24t25 10q29 0 51.5 20t25.5 49l65 462q2 14 13.5 24t25.5 10t23 -10t7 -24z" />
    <glyph glyph-name="circumflex" unicode="&#x2c6;" horiz-adv-x="401" 
d="M200 794q6 0 10.5 -2.5t13.5 -11.5t25 -27.5t45 -50.5q10 -11 3.5 -25t-21.5 -14q-6 0 -10.5 3t-8.5 7l-57 59l-57 -59q-4 -4 -9 -7t-10 -3q-7 0 -12.5 4t-8.5 10t-2.5 12.5t5.5 12.5q28 32 44 50.5t25 27.5t14 11.5t11 2.5z" />
    <glyph glyph-name="tilde" unicode="&#x2dc;" horiz-adv-x="426" 
d="M100 696q1 30 21 50.5t49 20.5q20 0 35.5 -10.5t25.5 -25.5q5 -6 11.5 -11.5t14.5 -5.5q12 0 20.5 9t8.5 22q0 8 6 14t14 6t14 -6t6 -14q-1 -30 -21 -50.5t-48 -20.5q-20 0 -35 10.5t-25 25.5q-6 7 -12 12.5t-15 5.5q-13 0 -21.5 -9.5t-8.5 -22.5q0 -8 -6 -14t-14 -6
t-14 6t-6 14z" />
    <glyph glyph-name="endash" unicode="&#x2013;" horiz-adv-x="584" 
d="M38 289q0 14 10 24t24 10h441q14 0 23.5 -10t9.5 -24t-9.5 -24t-23.5 -10h-441q-14 0 -24 10t-10 24z" />
    <glyph glyph-name="emdash" unicode="&#x2014;" horiz-adv-x="840" 
d="M38 289q0 14 10 24t24 10h697q14 0 23.5 -10t9.5 -24t-9.5 -24t-23.5 -10h-697q-14 0 -24 10t-10 24z" />
    <glyph glyph-name="quoteleft" unicode="&#x2018;" horiz-adv-x="202" 
d="M146 737q0 -20 -20 -20q-14 0 -24 -13t-10 -29v-22q2 2 4.5 2h4.5q22 0 36.5 -15t14.5 -37q0 -21 -14.5 -36t-36.5 -15q-21 0 -36 15t-15 36v67q0 35 21.5 60t54.5 27q20 0 20 -20z" />
    <glyph glyph-name="quoteright" unicode="&#x2019;" horiz-adv-x="202" 
d="M56 572q0 20 20 20q14 0 24 13t10 29v22q-2 -2 -4.5 -2h-4.5q-22 0 -36.5 15t-14.5 37q0 21 14.5 36t36.5 15q21 0 36 -15t15 -36v-67q0 -35 -21.5 -60t-54.5 -27q-20 0 -20 20z" />
    <glyph glyph-name="quotesinglbase" unicode="&#x201a;" horiz-adv-x="202" 
d="M56 -90q0 20 20 20q14 0 24 13t10 29v22q-2 -2 -4.5 -2h-4.5q-22 0 -36.5 15t-14.5 37q0 21 14.5 36t36.5 15q21 0 36 -15t15 -36v-67q0 -35 -21.5 -60t-54.5 -27q-20 0 -20 20z" />
    <glyph glyph-name="quotedblleft" unicode="&#x201c;" horiz-adv-x="304" 
d="M146 737q0 -20 -20 -20q-14 0 -24 -13t-10 -29v-22q2 2 4.5 2h4.5q22 0 36.5 -15t14.5 -37q0 -21 -14.5 -36t-36.5 -15q-21 0 -36 15t-15 36v67q0 35 21.5 60t54.5 27q20 0 20 -20zM268 737q0 -20 -20 -20q-14 0 -24 -13t-10 -29v-22q2 2 4.5 2h4.5q22 0 36.5 -15
t14.5 -37q0 -21 -14.5 -36t-36.5 -15q-21 0 -36 15t-15 36v67q0 35 21.5 60t54.5 27q20 0 20 -20z" />
    <glyph glyph-name="quotedblright" unicode="&#x201d;" horiz-adv-x="304" 
d="M158 572q0 20 20 20q14 0 24 13t10 29v22q-2 -2 -4.5 -2h-4.5q-22 0 -36.5 15t-14.5 37q0 21 14.5 36t36.5 15q21 0 36 -15t15 -36v-67q0 -35 -21.5 -60t-54.5 -27q-20 0 -20 20zM36 572q0 20 20 20q14 0 24 13t10 29v22q-2 -2 -4.5 -2h-4.5q-22 0 -36.5 15t-14.5 37
q0 21 14.5 36t36.5 15q21 0 36 -15t15 -36v-67q0 -35 -21.5 -60t-54.5 -27q-20 0 -20 20z" />
    <glyph glyph-name="quotedblbase" unicode="&#x201e;" horiz-adv-x="304" 
d="M36 -90q0 20 20 20q14 0 24 13t10 29v22q-2 -2 -4.5 -2h-4.5q-22 0 -36.5 15t-14.5 37q0 21 14.5 36t36.5 15q21 0 36 -15t15 -36v-67q0 -35 -21.5 -60t-54.5 -27q-20 0 -20 20zM158 -90q0 20 20 20q14 0 24 13t10 29v22q-2 -2 -4.5 -2h-4.5q-22 0 -36.5 15t-14.5 37
q0 21 14.5 36t36.5 15q21 0 36 -15t15 -36v-67q0 -35 -21.5 -60t-54.5 -27q-20 0 -20 20z" />
    <glyph glyph-name="dagger" unicode="&#x2020;" horiz-adv-x="540" 
d="M86 511q-14 0 -24 10t-10 24t10 24t24 10h152v145q0 14 10 24t24 10t24 -10t10 -24v-145h148q14 0 24 -10t10 -24t-10 -24t-24 -10h-368zM306 -60q0 -14 -10 -24t-24 -10t-24 10t-10 24v494q0 14 10 24t24 10t24 -10t10 -24v-494z" />
    <glyph glyph-name="daggerdbl" unicode="&#x2021;" horiz-adv-x="540" 
d="M86 511q-14 0 -24 10t-10 24t10 24t24 10h152v145q0 14 10 24t24 10t24 -10t10 -24v-145h148q14 0 24 -10t10 -24t-10 -24t-24 -10h-368zM454 153q14 0 24 -10t10 -24t-10 -24t-24 -10h-148v-145q0 -14 -10 -24t-24 -10t-24 10t-10 24v145h-152q-14 0 -24 10t-10 24
t10 24t24 10h368zM306 230q0 -14 -10 -24t-24 -10t-24 10t-10 24v204q0 14 10 24t24 10t24 -10t10 -24v-204z" />
    <glyph glyph-name="bullet" unicode="&#x2022;" horiz-adv-x="404" 
d="M202 188q-21 0 -39.5 8t-32.5 21.5t-22 32.5t-8 40t8 39.5t22 32.5t32.5 22t39.5 8t40 -8t32.5 -22t21.5 -32.5t8 -39.5q0 -43 -29.5 -72.5t-72.5 -29.5z" />
    <glyph glyph-name="ellipsis" unicode="&#x2026;" horiz-adv-x="775" 
d="M633 43q0 21 15 36t35 15q22 0 37 -15t15 -36t-15 -36t-37 -15q-20 0 -35 15t-15 36zM337 43q0 21 14.5 36t36.5 15q21 0 36 -15t15 -36t-15 -36t-36 -15q-22 0 -36.5 15t-14.5 36zM40 43q0 21 15 36t37 15q21 0 36 -15t15 -36t-15 -36t-36 -15q-22 0 -37 15t-15 36z" />
    <glyph glyph-name="perthousand" unicode="&#x2030;" horiz-adv-x="908" 
d="M595 119q0 28 10.5 53t29 43.5t43.5 29t53 10.5t53 -10.5t43.5 -29t29.5 -43.5t11 -53q0 -29 -11 -53.5t-29.5 -43t-43.5 -29t-53 -10.5t-53 10.5t-43.5 29t-29 43t-10.5 53.5zM649 119q0 -35 24 -58.5t58 -23.5t57.5 23.5t23.5 58.5t-23.5 58.5t-57.5 23.5t-58 -23.5
t-24 -58.5zM286 119q0 28 10.5 53t29 43.5t43.5 29t53 10.5t53 -10.5t43.5 -29t29.5 -43.5t11 -53q0 -29 -11 -53.5t-29.5 -43t-43.5 -29t-53 -10.5t-53 10.5t-43.5 29t-29 43t-10.5 53.5zM340 119q0 -35 24 -58.5t58 -23.5t57.5 23.5t23.5 58.5t-23.5 58.5t-57.5 23.5
t-58 -23.5t-24 -58.5zM313 631q0 -29 -10.5 -53.5t-29 -43t-43.5 -29t-53 -10.5t-53 10.5t-43.5 29t-29.5 43t-11 53.5q0 28 11 53t29.5 43.5t43.5 29t53 10.5t53 -10.5t43.5 -29t29 -43.5t10.5 -53zM259 631q0 35 -24 58.5t-58 23.5t-57.5 -23.5t-23.5 -58.5t23.5 -58.5
t57.5 -23.5t58 23.5t24 58.5zM449 758q15 0 22.5 -12t0.5 -28l-297 -710q-7 -16 -25 -16q-15 0 -22.5 12t-0.5 28l297 710q7 16 25 16z" />
    <glyph glyph-name="guilsinglleft" unicode="&#x2039;" horiz-adv-x="261" 
d="M32 290q0 9 3.5 16t17 20.5t41.5 37.5t76 67q9 8 19 9t19 -3.5t15 -13t6 -19.5q0 -9 -5 -16t-10 -13l-99 -85l99 -86q5 -5 10 -12.5t5 -15.5q0 -11 -6 -19.5t-15 -13t-19 -3.5t-19 9q-48 43 -76 67t-41.5 37.5t-17 20.5t-3.5 16z" />
    <glyph glyph-name="guilsinglright" unicode="&#x203a;" horiz-adv-x="261" 
d="M229 290q0 -9 -3.5 -16t-17 -20.5t-41.5 -37.5t-76 -67q-9 -8 -19 -9t-19 3.5t-15 13t-6 19.5q0 8 5 15.5t10 12.5l99 86l-99 85q-5 6 -10 13t-5 16q0 11 6 19.5t15 13t19 3.5t19 -9q48 -43 76 -67t41.5 -37.5t17 -20.5t3.5 -16z" />
    <glyph glyph-name="Euro" unicode="&#x20ac;" horiz-adv-x="724" 
d="M61 409q-14 0 -24 10t-10 24t10 24t24 10h68q12 62 39.5 115t67 92t90 61t109.5 22q80 0 138 -38t102 -101q6 -8 7.5 -17.5t-1.5 -18t-11 -14.5t-20 -6q-19 0 -29 16q-33 51 -78 80.5t-108 29.5q-49 0 -90 -19.5t-72.5 -53.5t-52.5 -80.5t-29 -100.5q-2 -14 -11 -24.5
t-23 -10.5h-96zM248 306q0 14 10 24t24 10h221q14 0 24 -10t10 -24t-10 -23.5t-24 -9.5h-221q-14 0 -24 9.5t-10 23.5zM282 409q-14 0 -24 10t-10 24t10 24t24 10h306q14 0 24 -10t10 -24t-10 -24t-24 -10h-306zM157 340q14 0 23 -10.5t11 -24.5q8 -54 29 -100.5t52.5 -80.5
t72.5 -53t90 -19q63 0 108 29.5t78 80.5q10 16 29 16q12 0 20 -6t11 -14.5t1.5 -18t-7.5 -17.5q-44 -63 -102 -101t-138 -38q-59 0 -109.5 22t-90 60.5t-67 91.5t-39.5 115h-68q-14 0 -24 10t-10 24t10 24t24 10h96z" />
    <glyph glyph-name="trademark" unicode="&#x2122;" horiz-adv-x="361" 
d="M321 600h-14v118l-54 -118h-13l-55 118v-118h-14v150h14l61 -132l61 132h14v-150zM105 736v-136h-13v136h-52v14h117v-14h-52z" />
    </font>
</defs>
</svg>
